<?xml version="1.0" encoding="utf-8"?>
<!-- Generator: Adobe Illustrator 24.0.1, SVG Export Plug-In . SVG Version: 6.00 Build 0)  -->
<svg version="1.1" id="Camada_1" xmlns="http://www.w3.org/2000/svg" xmlns:xlink="http://www.w3.org/1999/xlink" x="0px" y="0px"
	 viewBox="0 0 64 60" style="enable-background:new 0 0 64 60;" xml:space="preserve">
<title>purchase-pay-bill-accounting</title>
<path d="M56,2H24c-2.8,0-5,2.2-5,5v11h8v5h-6c-1.8,0-3.5,1.2-3.9,3h-2.3c-0.4-1.2-1.5-2-2.8-2H5v15h7c1.3,0,2.4-0.8,2.8-2h2.3
	c0.4,2.4,2.5,4.1,4.9,4h5v12c0,2.8,2.2,5,5,5h29V7C61,4.2,58.8,2,56,2z M13,36c0,0.6-0.4,1-1,1H7v-7h5c0.6,0,1,0.4,1,1V36z M13,28.2
	c-0.3-0.1-0.7-0.2-1-0.2H7v-2h5c0.6,0,1,0.4,1,1V28.2z M21,7c0-1.7,1.3-3,3-3c1.6-0.1,2.9,1.1,3,2.7c0,0.1,0,0.2,0,0.3v5h-6V7z
	 M21,16v-2h6v2H21z M22,39c-1.6,0.1-2.9-1.1-3-2.7c0-0.1,0-0.2,0-0.3v-4h-2v3h-2v-7h4v-1c-0.1-1,0.7-1.9,1.8-2c0.1,0,0.2,0,0.2,0h6
	v2h-2v2h2v2h-2v2h2v2h-2.1c-0.4-1.8-2.1-3-3.9-3v2c1-0.1,1.9,0.7,2,1.8c0,0.1,0,0.2,0,0.2v1h7.5c0.3,0,0.5,0.2,0.5,0.5v1
	c0,0.3-0.2,0.5-0.5,0.5H22z M59,56H32c-1.7,0-3-1.3-3-3l0,0V41h1.5c0.2,0,0.3,0,0.5-0.1V41h6v-6h-6v0.1c-0.2,0-0.3-0.1-0.5-0.1H29V7
	c0-1.1-0.3-2.1-0.9-3H56c1.7,0,3,1.3,3,3V56z M33,39v-2h2v2H33z"/>
<path d="M44,18c-0.6,0-1-0.4-1-1h-2c0,1.3,0.8,2.4,2,2.8V22h2v-2.2c1.6-0.5,2.4-2.3,1.8-3.8c-0.4-1.2-1.6-2-2.8-2c-0.6,0-1-0.4-1-1
	s0.4-1,1-1s1,0.4,1,1h2c0-1.3-0.8-2.4-2-2.8V8h-2v2.2c-1.6,0.5-2.4,2.3-1.8,3.8c0.4,1.2,1.6,2,2.8,2c0.6,0,1,0.4,1,1S44.6,18,44,18z
	"/>
<rect x="37" y="14" width="2" height="2"/>
<rect x="49" y="14" width="2" height="2"/>
<rect x="40" y="27" width="17" height="2"/>
<rect x="40" y="30.9" width="17" height="2"/>
<rect x="40" y="35" width="17" height="2"/>
<rect x="40" y="39" width="17" height="2"/>
<rect x="40" y="47" width="17" height="2"/>
<rect x="40" y="43" width="17" height="2"/>
<path d="M37,27h-6v6h6V27z M35,31h-2v-2h2V31z"/>
<path d="M37,43h-6v6h6V43z M35,47h-2v-2h2V47z"/>
<rect x="31" y="51" width="26" height="2"/>
<rect x="9" y="32" width="2" height="2"/>
<rect x="7" y="18" width="7" height="2"/>
<rect x="11" y="13" width="5" height="2"/>
<rect x="8" y="44" width="15" height="2"/>
<rect x="13" y="50" width="5" height="2"/>
<rect x="6" y="50" width="4" height="2"/>
<rect x="19" y="55" width="4" height="2"/>
<text transform="matrix(1 0 0 1 0 69)" style="font-family:'Arial-BoldMT'; font-size:5px;">Created by Ninejipjip</text>
<text transform="matrix(1 0 0 1 0 74)" style="font-family:'Arial-BoldMT'; font-size:5px;">from the Noun Project</text>
</svg>
