<?xml version="1.0" encoding="utf-8"?>
<!-- Generator: Adobe Illustrator 24.0.1, SVG Export Plug-In . SVG Version: 6.00 Build 0)  -->
<svg version="1.1" id="Camada_1" xmlns="http://www.w3.org/2000/svg" xmlns:xlink="http://www.w3.org/1999/xlink" x="0px" y="0px"
	 viewBox="0 0 80 100" style="enable-background:new 0 0 80 100;" xml:space="preserve">
<g>
	<path d="M-584.7-113h1.7c0.9,0,1.6-0.7,1.6-1.6s-0.7-1.6-1.6-1.6h-1.7c-0.9,0-1.6,0.7-1.6,1.6C-586.3-113.8-585.6-113-584.7-113z"
		/>
	<path d="M-516.6-116.3h-59.5c-0.9,0-1.6,0.7-1.6,1.6s0.7,1.6,1.6,1.6h57.9v51.4H-552h-16h-33.8v-51.4h12.5c0.9,0,1.6-0.7,1.6-1.6
		s-0.7-1.6-1.6-1.6h-14.1c-0.9,0-1.6,0.7-1.6,1.6v54.6c0,0.9,0.7,1.6,1.6,1.6h33.8v6.4h-6.4c-0.9,0-1.6,0.7-1.6,1.6s0.7,1.6,1.6,1.6
		h8h16.1h8c0.9,0,1.6-0.7,1.6-1.6s-0.7-1.6-1.6-1.6h-6.4v-6.4h33.7c0.9,0,1.6-0.7,1.6-1.6v-54.6C-515-115.5-515.7-116.3-516.6-116.3
		z M-553.6-52h-12.9v-6.4h12.9V-52z"/>
	<path d="M-588.9-78.1l-4.9,2.8c-0.8,0.4-1,1.4-0.6,2.2c0.3,0.5,0.8,0.8,1.4,0.8c0.3,0,0.6-0.1,0.8-0.2l4.9-2.8
		c0.8-0.4,1-1.4,0.6-2.2C-587.1-78.3-588.1-78.6-588.9-78.1z"/>
	<path d="M-559.3-92.9c-0.1-0.5-0.4-1-0.9-1.2s-1-0.2-1.5,0.1l-23.5,13.7c-0.8,0.4-1,1.4-0.6,2.2c0.3,0.5,0.8,0.8,1.4,0.8
		c0.3,0,0.6-0.1,0.8-0.2l21.5-12.6l1.4,7.6c0.1,0.5,0.4,0.9,0.9,1.2c0.5,0.2,1,0.2,1.5-0.1l25.1-14.2l0.9,1.8
		c0.3,0.6,1.1,0.6,1.5,0.1l4.1-6.2c0.4-0.5,0-1.3-0.7-1.3l-7.4-0.4c-0.7,0-1.1,0.6-0.8,1.2l1,1.9l-23.2,13.2L-559.3-92.9z"/>
</g>
<g>
	<g>
		<path d="M-404.6-127.5h-64.2c-0.9,0-1.6,0.7-1.6,1.6v4.8h-4.9c-0.9,0-1.6,0.7-1.6,1.6s0.7,1.6,1.6,1.6h4.9v7.3h-4.9
			c-0.9,0-1.6,0.7-1.6,1.6s0.7,1.6,1.6,1.6h4.9v7.3h-4.9c-0.9,0-1.6,0.7-1.6,1.6s0.7,1.6,1.6,1.6h4.9v7.3h-4.9
			c-0.9,0-1.6,0.7-1.6,1.6s0.7,1.6,1.6,1.6h4.9v7.3h-4.9c-0.9,0-1.6,0.7-1.6,1.6s0.7,1.6,1.6,1.6h4.9v7.3h-4.9
			c-0.9,0-1.6,0.7-1.6,1.6c0,0.9,0.7,1.6,1.6,1.6h4.9v7.3h-4.9c-0.9,0-1.6,0.7-1.6,1.6s0.7,1.6,1.6,1.6h4.9v7.3h-4.9
			c-0.9,0-1.6,0.7-1.6,1.6s0.7,1.6,1.6,1.6h4.9v4.8c0,0.9,0.7,1.6,1.6,1.6h64.2c0.9,0,1.6-0.7,1.6-1.6v-63.3c0-0.9-0.7-1.6-1.6-1.6
			s-1.6,0.7-1.6,1.6v61.7h-61v-3.2h4.8c0.9,0,1.6-0.7,1.6-1.6s-0.7-1.6-1.6-1.6h-4.8v-6.9h4.8c0.9,0,1.6-0.7,1.6-1.6
			s-0.7-1.6-1.6-1.6h-4.8V-65h4.8c0.9,0,1.6-0.7,1.6-1.6c0-0.9-0.7-1.6-1.6-1.6h-4.8v-7.3h4.8c0.9,0,1.6-0.7,1.6-1.6
			c0-0.9-0.7-1.6-1.6-1.6h-4.8V-86h4.8c0.9,0,1.6-0.7,1.6-1.6s-0.7-1.6-1.6-1.6h-4.8v-7.3h4.8c0.9,0,1.6-0.7,1.6-1.6
			s-0.7-1.6-1.6-1.6h-4.8v-7.3h4.8c0.9,0,1.6-0.7,1.6-1.6s-0.7-1.6-1.6-1.6h-4.8v-7.3h4.8c0.9,0,1.6-0.7,1.6-1.6s-0.7-1.6-1.6-1.6
			h-4.8v-3.2h61v7.4c0,0.9,0.7,1.6,1.6,1.6s1.6-0.7,1.6-1.6v-9C-403-126.8-403.8-127.5-404.6-127.5z"/>
		<path d="M-404.6-113.4c-0.9,0-1.6,0.7-1.6,1.6v2.7c0,0.9,0.7,1.6,1.6,1.6s1.6-0.7,1.6-1.6v-2.7
			C-403-112.7-403.8-113.4-404.6-113.4z"/>
		<path d="M-435.2-98.1c4.4,0,8,3.1,8,7c0,0.9,0.7,1.6,1.6,1.6s1.6-0.7,1.6-1.6c0-5.1-4.2-9.4-9.6-10.1v-5.4c0-0.9-0.7-1.6-1.6-1.6
			s-1.6,0.7-1.6,1.6v5.4c-5.4,0.7-9.6,5-9.6,10.1c0,5.6,5,10.2,11.2,10.2c4.4,0,8,3.1,8,7s-3.6,7-8,7s-8-3.1-8-7
			c0-0.9-0.7-1.6-1.6-1.6s-1.6,0.7-1.6,1.6c0,5.1,4.2,9.4,9.6,10.1v5.4c0,0.9,0.7,1.6,1.6,1.6s1.6-0.7,1.6-1.6v-5.4
			c5.4-0.7,9.6-5,9.6-10.1c0-5.6-5-10.2-11.2-10.2c-4.4,0-8-3.1-8-7S-439.6-98.1-435.2-98.1z"/>
	</g>
</g>
<g>
	<g>
		<path d="M-350.3-45.5h-1.5c-0.9,0-1.6,0.7-1.6,1.6c0,0.9,0.7,1.6,1.6,1.6h1.5c0.9,0,1.6-0.7,1.6-1.6
			C-348.7-44.8-349.4-45.5-350.3-45.5z"/>
		<path d="M-276.6-117.2h-6.7v-3.8c0-0.9-0.7-1.6-1.6-1.6s-1.6,0.7-1.6,1.6v3.8h-6.9v-3.8c0-0.9-0.7-1.6-1.6-1.6s-1.6,0.7-1.6,1.6
			v3.8h-6.9v-3.8c0-0.9-0.7-1.6-1.6-1.6s-1.6,0.7-1.6,1.6v3.8h-6.9v-3.8c0-0.9-0.7-1.6-1.6-1.6s-1.6,0.7-1.6,1.6v3.8h-6.9v-3.8
			c0-0.9-0.7-1.6-1.6-1.6s-1.6,0.7-1.6,1.6v3.8h-6.9v-3.8c0-0.9-0.7-1.6-1.6-1.6s-1.6,0.7-1.6,1.6v3.8h-6.9v-3.8
			c0-0.9-0.7-1.6-1.6-1.6s-1.6,0.7-1.6,1.6v3.8h-6.9v-3.8c0-0.9-0.7-1.6-1.6-1.6s-1.6,0.7-1.6,1.6v3.8h-6.2c-0.9,0-1.6,0.7-1.6,1.6
			v13v58.7c0,0.9,0.7,1.6,1.6,1.6h6.7c0.9,0,1.6-0.7,1.6-1.6c0-0.9-0.7-1.6-1.6-1.6h-5.1V-101h83.6v55.5h-65.1
			c-0.9,0-1.6,0.7-1.6,1.6c0,0.9,0.7,1.6,1.6,1.6h66.7c0.9,0,1.6-0.7,1.6-1.6v-58.7v-13C-275-116.5-275.7-117.2-276.6-117.2z
			 M-361.8-104.2v-9.8h4.6v3.8c0,0.9,0.7,1.6,1.6,1.6s1.6-0.7,1.6-1.6v-3.8h6.9v3.8c0,0.9,0.7,1.6,1.6,1.6s1.6-0.7,1.6-1.6v-3.8h6.9
			v3.8c0,0.9,0.7,1.6,1.6,1.6s1.6-0.7,1.6-1.6v-3.8h6.9v3.8c0,0.9,0.7,1.6,1.6,1.6s1.6-0.7,1.6-1.6v-3.8h6.9v3.8
			c0,0.9,0.7,1.6,1.6,1.6s1.6-0.7,1.6-1.6v-3.8h6.9v3.8c0,0.9,0.7,1.6,1.6,1.6s1.6-0.7,1.6-1.6v-3.8h6.9v3.8c0,0.9,0.7,1.6,1.6,1.6
			s1.6-0.7,1.6-1.6v-3.8h6.9v3.8c0,0.9,0.7,1.6,1.6,1.6s1.6-0.7,1.6-1.6v-3.8h5.1v9.8H-361.8z"/>
	</g>
</g>
<g>
	<g>
		<path d="M-205.3-52.4l-1,1c-0.6,0.6-0.6,1.6,0,2.3c0.3,0.3,0.7,0.5,1.1,0.5c0.4,0,0.8-0.2,1.1-0.5l1-1c0.6-0.6,0.6-1.6,0-2.3
			C-203.7-53-204.7-53-205.3-52.4z"/>
		<path d="M-156.6-127.5h-27.1c-0.4,0-0.8,0.2-1.1,0.5l-59.7,59.7c-0.6,0.6-0.6,1.6,0,2.3l27.1,27.1c0.3,0.3,0.7,0.5,1.1,0.5
			c0.4,0,0.8-0.2,1.1-0.5l7.9-7.9c0.6-0.6,0.6-1.6,0-2.3s-1.6-0.6-2.3,0l-6.8,6.8l-24.8-24.8l58.1-58.1h24.8v24.7l-43.6,43.6
			c-0.6,0.6-0.6,1.6,0,2.3s1.6,0.6,2.3,0l44.1-44.1c0.3-0.3,0.5-0.7,0.5-1.1v-27.1C-155-126.8-155.7-127.5-156.6-127.5z"/>
		<path d="M-163.5-110.6c1.1-1.1,1.7-2.6,1.7-4.2s-0.6-3.1-1.7-4.2c-2.2-2.2-6.2-2.3-8.4,0c-2.3,2.3-2.3,6.1,0,8.4
			c1.1,1.1,2.6,1.7,4.2,1.7C-166.1-108.9-164.6-109.5-163.5-110.6z M-169.6-116.8c0.5-0.5,1.2-0.8,1.9-0.8s1.4,0.3,1.9,0.8
			s0.8,1.2,0.8,1.9c0,0.7-0.3,1.4-0.8,1.9c-1,1-2.8,1-3.9,0C-170.7-113.9-170.7-115.7-169.6-116.8z"/>
		<path d="M-191.6-109.8L-231-70.4c-0.6,0.6-0.6,1.6,0,2.3c0.3,0.3,0.7,0.5,1.1,0.5c0.4,0,0.8-0.2,1.1-0.5l39.4-39.4
			c0.6-0.6,0.6-1.6,0-2.3S-191-110.4-191.6-109.8z"/>
		<path d="M-224.9-62.7c0.4,0,0.8-0.2,1.1-0.5l30.2-30.2c0.6-0.6,0.6-1.6,0-2.3c-0.6-0.6-1.6-0.6-2.3,0l-30.2,30.2
			c-0.6,0.6-0.6,1.6,0,2.3C-225.8-62.9-225.3-62.7-224.9-62.7z"/>
		<path d="M-192.3-97c0.3,0.3,0.7,0.5,1.1,0.5s0.8-0.2,1.1-0.5l5.6-5.6c0.6-0.6,0.6-1.6,0-2.3s-1.6-0.6-2.3,0l-5.6,5.6
			C-192.9-98.6-192.9-97.6-192.3-97z"/>
		<path d="M-237.3-82.3c0.3,0.5,0.8,0.8,1.4,0.8c0.3,0,0.6-0.1,0.8-0.2c0.8-0.5,1-1.4,0.6-2.2l-6-10.1l42-24.2
			c0.8-0.4,1-1.4,0.6-2.2c-0.4-0.8-1.4-1-2.2-0.6l-43.4,25c-0.4,0.2-0.6,0.6-0.8,1c-0.1,0.4,0,0.9,0.2,1.2L-237.3-82.3z"/>
	</g>
</g>
<g>
	<g>
		<path d="M-40.9-106.3h-24.6v-5.6c0-3.2-2.6-5.9-5.9-5.9h-17.1c-3.2,0-5.9,2.6-5.9,5.9v5.6H-119c-3.2,0-5.9,2.7-5.9,6v47.2
			c0,3.3,2.6,6,5.9,6h10.9c0.9,0,1.6-0.7,1.6-1.6s-0.7-1.6-1.6-1.6H-119c-1.5,0-2.7-1.2-2.7-2.8v-25.3h15.9v3.3
			c0,0.9,0.7,1.6,1.6,1.6h5c0.9,0,1.6-0.7,1.6-1.6v-3.3h34.9v3.3c0,0.9,0.7,1.6,1.6,1.6h5c0.9,0,1.6-0.7,1.6-1.6v-3.3h16.3v25.3
			c0,1.5-1.2,2.8-2.7,2.8h-55.9c-0.9,0-1.6,0.7-1.6,1.6s0.7,1.6,1.6,1.6h55.9c3.2,0,5.9-2.7,5.9-6v-47.2
			C-35-103.6-37.6-106.3-40.9-106.3z M-91.3-112c0-1.5,1.2-2.7,2.7-2.7h17.1c1.5,0,2.7,1.2,2.7,2.7v5.6h-22.5V-112z M-100.9-76.7
			h-1.8v-6.7h1.8V-76.7z M-57.7-76.7h-1.8v-6.7h1.8V-76.7z M-54.5-81.6v-3.3c0-0.9-0.7-1.6-1.6-1.6h-5c-0.9,0-1.6,0.7-1.6,1.6v3.3
			h-34.9v-3.3c0-0.9-0.7-1.6-1.6-1.6h-5c-0.9,0-1.6,0.7-1.6,1.6v3.3h-15.9v-18.7c0-1.5,1.2-2.8,2.7-2.8h78.2c1.5,0,2.7,1.2,2.7,2.8
			v18.7C-38.1-81.6-54.5-81.6-54.5-81.6z"/>
		<path d="M-102.4-50.4h-1.2c-0.9,0-1.6,0.7-1.6,1.6s0.7,1.6,1.6,1.6h1.2c0.9,0,1.6-0.7,1.6-1.6S-101.5-50.4-102.4-50.4z"/>
	</g>
</g>
<g>
	<g>
		<path d="M73.8-125.9c0-0.9-0.7-1.6-1.6-1.6H7.9c-0.9,0-1.6,0.7-1.6,1.6V-67c0,0.9,0.7,1.6,1.6,1.6s1.6-0.7,1.6-1.6v-57.3h61.1V-60
			H52.9c-0.9,0-1.6,0.7-1.6,1.6v17.7H9.5v-11.9c0-0.9-0.7-1.6-1.6-1.6s-1.6,0.7-1.6,1.6v13.5c0,0.9,0.7,1.6,1.6,1.6h45
			c0.2,0,0.4,0,0.6-0.1c0.2-0.1,0.3-0.2,0.5-0.3c0,0,0,0,0.1,0l19.3-19.3c0.1-0.1,0.3-0.3,0.3-0.5c0.1-0.2,0.1-0.4,0.1-0.6
			C73.8-58.3,73.8-125.9,73.8-125.9z M68.3-56.8L54.5-43v-13.8H68.3z"/>
		<path d="M7.9-55.9c0.9,0,1.6-0.7,1.6-1.6v-2.7c0-0.9-0.7-1.6-1.6-1.6s-1.6,0.7-1.6,1.6v2.7C6.3-56.7,7-55.9,7.9-55.9z"/>
		<path d="M17.5-114.1h45c0.9,0,1.6-0.7,1.6-1.6s-0.7-1.6-1.6-1.6h-45c-0.9,0-1.6,0.7-1.6,1.6C15.9-114.8,16.6-114.1,17.5-114.1z"/>
		<path d="M17.5-105.3h45c0.9,0,1.6-0.7,1.6-1.6s-0.7-1.6-1.6-1.6h-45c-0.9,0-1.6,0.7-1.6,1.6S16.6-105.3,17.5-105.3z"/>
		<path d="M62.5-99.6H29.2c-0.9,0-1.6,0.7-1.6,1.6s0.7,1.6,1.6,1.6h33.3c0.9,0,1.6-0.7,1.6-1.6S63.4-99.6,62.5-99.6z"/>
		<path d="M17.5-96.4h6.6c0.9,0,1.6-0.7,1.6-1.6s-0.7-1.6-1.6-1.6h-6.6c-0.9,0-1.6,0.7-1.6,1.6C15.9-97.1,16.6-96.4,17.5-96.4z"/>
	</g>
</g>
<g>
	<g>
		<path d="M169.9-111.4h2.6c0.9,0,1.6-0.7,1.6-1.6s-0.7-1.6-1.6-1.6h-2.6c-0.9,0-1.6,0.7-1.6,1.6
			C168.3-112.1,169.1-111.4,169.9-111.4z"/>
		<path d="M142.5-74c0.4,0,0.8-0.1,1.1-0.4l2.3-2.1c0.7-0.6,0.7-1.6,0.1-2.3c-0.6-0.7-1.6-0.7-2.3-0.1l-2.3,2.1
			c-0.7,0.6-0.7,1.6-0.1,2.3C141.6-74.2,142-74,142.5-74z"/>
		<path d="M205-51.7c0-0.1,0-0.1,0-0.2V-113c0-0.1,0-0.1,0-0.2s0-0.2-0.1-0.3c0-0.1-0.1-0.2-0.2-0.3c0-0.1-0.1-0.1-0.1-0.2l0,0
			c-0.1-0.1-0.2-0.1-0.3-0.2s-0.2-0.1-0.2-0.2c-0.1,0-0.2-0.1-0.3-0.1s-0.2-0.1-0.3-0.1c0,0,0,0-0.1,0h-25.8c-0.9,0-1.6,0.7-1.6,1.6
			s0.7,1.6,1.6,1.6H199l-39,33.2l-39-33.2h43.9c0.9,0,1.6-0.7,1.6-1.6s-0.7-1.6-1.6-1.6h-48.2c0,0,0,0-0.1,0s-0.2,0-0.3,0.1
			c-0.1,0-0.2,0-0.3,0.1c-0.1,0-0.2,0.1-0.2,0.2c-0.1,0.1-0.2,0.1-0.3,0.2c0,0,0,0-0.1,0c-0.1,0.1-0.1,0.1-0.1,0.2
			c-0.1,0.1-0.1,0.2-0.2,0.3c0,0.1-0.1,0.2-0.1,0.3c0,0.1,0,0.1,0,0.2v61.1c0,0.1,0,0.2,0,0.2c0,0.1,0,0.2,0.1,0.4
			c0,0.1,0.1,0.2,0.2,0.3c0,0.1,0.1,0.1,0.1,0.2l0,0c0.1,0.1,0.3,0.2,0.5,0.3c0,0,0,0,0.1,0.1c0.2,0.1,0.4,0.1,0.6,0.1h86.8
			c0.2,0,0.4,0,0.6-0.1c0,0,0.1,0,0.1-0.1c0.2-0.1,0.3-0.2,0.4-0.3l0,0c0.1-0.1,0.1-0.1,0.1-0.2c0.1-0.1,0.1-0.2,0.2-0.3
			C204.9-51.5,204.9-51.6,205-51.7z M160-74.5c0.4,0,0.7-0.1,1-0.4l40.7-34.7v53.9L176.3-79c-0.7-0.6-1.7-0.6-2.3,0.1
			s-0.6,1.7,0.1,2.3l25.1,22.9h-78.5l19.2-17.5c0.7-0.6,0.7-1.6,0.1-2.3c-0.6-0.7-1.6-0.7-2.3-0.1l-19.6,17.9v-53.9L159-74.8
			C159.3-74.6,159.6-74.5,160-74.5z"/>
	</g>
</g>
<g>
	<g>
		<path d="M259.6-124.3h1.7c0.9,0,1.6-0.7,1.6-1.6s-0.7-1.6-1.6-1.6h-1.7c-0.9,0-1.6,0.7-1.6,1.6S258.8-124.3,259.6-124.3z"/>
		<path d="M308.5-127.5h-41.4c-0.9,0-1.6,0.7-1.6,1.6s0.7,1.6,1.6,1.6h41.4c2,0,3.6,1.6,3.6,3.6v51.3H304
			c-0.7-10.1-7.6-18.5-16.9-21.4c3.5-2.3,5.8-6.2,5.8-10.7c0-7.1-5.8-12.9-12.9-12.9s-12.9,5.8-12.9,12.9c0,4.5,2.3,8.4,5.8,10.7
			c-9.4,2.9-16.3,11.3-16.9,21.4h-8.1v-51.3c0-2,1.6-3.6,3.6-3.6h2.9c0.9,0,1.6-0.7,1.6-1.6s-0.7-1.6-1.6-1.6h-2.9
			c-3.8,0-6.8,3.1-6.8,6.8v76.3c0,3.8,3.1,6.8,6.8,6.8h57.1c3.8,0,6.8-3.1,6.8-6.8v-76.3C315.4-124.4,312.3-127.5,308.5-127.5z
			 M280-88.6c11,0,20,8.5,20.8,19.2h-41.6C260-80.1,269-88.6,280-88.6z M270.4-101.5c0-5.3,4.3-9.6,9.6-9.6s9.6,4.3,9.6,9.6
			s-4.3,9.6-9.6,9.6S270.4-96.2,270.4-101.5z M308.5-40.7h-57.1c-2,0-3.6-1.6-3.6-3.6v-21.8h64.3v21.8
			C312.1-42.3,310.5-40.7,308.5-40.7z"/>
		<path d="M304.1-61.1h-48.2c-0.9,0-1.6,0.7-1.6,1.6c0,0.9,0.7,1.6,1.6,1.6h48.2c0.9,0,1.6-0.7,1.6-1.6
			C305.7-60.4,305-61.1,304.1-61.1z"/>
		<path d="M304.1-54.7h-48.2c-0.9,0-1.6,0.7-1.6,1.6s0.7,1.6,1.6,1.6h48.2c0.9,0,1.6-0.7,1.6-1.6S305-54.7,304.1-54.7z"/>
		<path d="M304.1-46.7h-10.7c-0.9,0-1.6,0.7-1.6,1.6s0.7,1.6,1.6,1.6h10.7c0.9,0,1.6-0.7,1.6-1.6S305-46.7,304.1-46.7z"/>
		<path d="M288.4-46.7H287c-0.9,0-1.6,0.7-1.6,1.6s0.7,1.6,1.6,1.6h1.5c0.9,0,1.6-0.7,1.6-1.6C290-46,289.3-46.7,288.4-46.7z"/>
	</g>
</g>
<g>
	<g>
		<path d="M437.5-111.4h-20.1c-0.9,0-1.6,0.7-1.6,1.6s0.7,1.6,1.6,1.6h20.1c2.4,0,4.3,1.9,4.3,4.3v5.1h-83.6v-5.1
			c0-2.4,1.9-4.3,4.3-4.3h43c0.9,0,1.6-0.7,1.6-1.6s-0.7-1.6-1.6-1.6h-43c-4.1,0-7.5,3.4-7.5,7.5V-61c0,4.1,3.4,7.5,7.5,7.5h75
			c4.1,0,7.5-3.4,7.5-7.5v-42.9C445-108.1,441.6-111.4,437.5-111.4z M441.8-95.6v5.1h-83.6v-5.1H441.8z M437.5-56.8h-75
			c-2.4,0-4.3-1.9-4.3-4.3v-26.3h83.6v26.3C441.8-58.7,439.9-56.8,437.5-56.8z"/>
		<path d="M409.9-108.2h2.2c0.9,0,1.6-0.7,1.6-1.6s-0.7-1.6-1.6-1.6h-2.2c-0.9,0-1.6,0.7-1.6,1.6
			C408.3-108.9,409.1-108.2,409.9-108.2z"/>
		<path d="M430-76.1h-11.9c-2.9,0-5.3,2.4-5.3,5.3v2.2c0,2.9,2.4,5.3,5.3,5.3H430c2.9,0,5.3-2.4,5.3-5.3v-2.2
			C435.4-73.7,433-76.1,430-76.1z M432.1-68.5c0,1.2-0.9,2.1-2.1,2.1h-11.9c-1.2,0-2.1-0.9-2.1-2.1v-2.2c0-1.2,0.9-2.1,2.1-2.1H430
			c1.2,0,2.1,0.9,2.1,2.1V-68.5z"/>
		<path d="M385.5-74.5h-19.3c-0.9,0-1.6,0.7-1.6,1.6s0.7,1.6,1.6,1.6h19.3c0.9,0,1.6-0.7,1.6-1.6S386.4-74.5,385.5-74.5z"/>
		<path d="M392.1-68h-1.2c-0.9,0-1.6,0.7-1.6,1.6s0.7,1.6,1.6,1.6h1.2c0.9,0,1.6-0.7,1.6-1.6S393-68,392.1-68z"/>
		<path d="M385.5-68h-19.3c-0.9,0-1.6,0.7-1.6,1.6s0.7,1.6,1.6,1.6h19.3c0.9,0,1.6-0.7,1.6-1.6S386.4-68,385.5-68z"/>
	</g>
</g>
<g>
	<g>
		<path d="M539.3-123.7c-12.8,0-25.7,3.1-25.7,9v22.4c-3.4-1.6-7.2-2.5-11.3-2.5c-15,0-27.3,12.3-27.3,27.4c0,5,1.4,9.9,4,14.2
			c0.5,0.8,1.5,1,2.2,0.5c0.8-0.5,1-1.5,0.5-2.2c-2.3-3.8-3.5-8.1-3.5-12.5c0-13.3,10.8-24.1,24.1-24.1s24.1,10.8,24.1,24.1
			s-10.8,24.1-24.1,24.1c-4.6,0-9.1-1.3-12.9-3.8c-0.8-0.5-1.7-0.3-2.2,0.5c-0.5,0.7-0.3,1.7,0.5,2.2c4.4,2.8,9.5,4.3,14.7,4.3
			c5.4,0,10.4-1.6,14.6-4.3c4.4,2.7,12.8,4.3,22.3,4.3c12.8,0,25.7-3.1,25.7-9v-65.5C565-120.6,552.1-123.7,539.3-123.7z
			 M561.8-62.2c0,2-7.9,5.8-22.5,5.8c-4.1,0-8.1-0.3-11.6-1c1.2-3,1.9-6.2,1.9-9.6c3,0.4,6.3,0.6,9.7,0.6c8.9,0,17.9-1.5,22.5-4.4
			L561.8-62.2L561.8-62.2z M539.3-120.5c14.6,0,22.5,3.8,22.5,5.8s-7.9,5.8-22.5,5.8s-22.5-3.8-22.5-5.8S524.7-120.5,539.3-120.5z
			 M516.8-90.6v-19.5c4.6,2.9,13.6,4.4,22.5,4.4s17.9-1.5,22.5-4.4v8.5c0,2-7.9,5.8-22.5,5.8c-4.6,0-9-0.4-12.8-1.2
			c-0.9-0.2-1.7,0.4-1.9,1.3s0.4,1.7,1.3,1.9c4,0.8,8.7,1.2,13.4,1.2c8.9,0,17.9-1.5,22.5-4.4v21.6c0,2-7.9,5.8-22.5,5.8
			c-3.4,0-6.7-0.2-9.8-0.7c-0.4-3.7-1.5-7.2-3.2-10.4c3.9,0.7,8.4,1.1,13,1.1c4.8,0,9.4-0.4,13.4-1.2c0.9-0.2,1.4-1,1.3-1.9
			c-0.2-0.9-1-1.4-1.9-1.3c-3.8,0.8-8.2,1.2-12.8,1.2c-5.8,0-11.4-0.7-15.6-1.8C521.7-86.9,519.4-88.9,516.8-90.6z M539.3-43.3
			c-8.9,0-15.7-1.5-19.4-3.2c2.6-2.2,4.8-4.9,6.5-7.9c3.9,0.7,8.3,1.2,13,1.2c8.9,0,17.9-1.5,22.5-4.4v8.5
			C561.8-47.2,553.8-43.3,539.3-43.3z"/>
		<path d="M523.5-95.9c0.3-0.8-0.2-1.7-1-2c-0.6-0.2-1.2-0.4-1.8-0.7c-0.8-0.3-1.8,0.1-2.1,0.9s0.1,1.8,0.9,2.1
			c0.6,0.3,1.3,0.5,2.1,0.7c0.2,0.1,0.3,0.1,0.5,0.1C522.6-94.8,523.2-95.2,523.5-95.9z"/>
		<path d="M556.6-81.7c0.2,0,0.3,0,0.5-0.1c0.7-0.2,1.4-0.5,2.1-0.7c0.8-0.3,1.2-1.3,0.9-2.1c-0.3-0.8-1.3-1.2-2.1-0.9
			c-0.6,0.2-1.2,0.4-1.8,0.7c-0.8,0.3-1.3,1.2-1,2C555.3-82.1,556-81.7,556.6-81.7z"/>
		<path d="M484.4-51.3c-0.6-0.7-1.6-0.7-2.3-0.1c-0.7,0.6-0.7,1.6-0.1,2.3c0.4,0.4,0.7,0.8,1.1,1.2c0.3,0.3,0.7,0.5,1.1,0.5
			s0.8-0.2,1.1-0.5c0.6-0.6,0.6-1.6,0-2.3C485.1-50.6,484.7-50.9,484.4-51.3z"/>
		<path d="M502.3-58.7c-2.6,0-4.8-1.6-4.8-3.6c0-0.9-0.7-1.6-1.6-1.6s-1.6,0.7-1.6,1.6c0,3.3,2.8,6,6.4,6.6v2.7
			c0,0.9,0.7,1.6,1.6,1.6c0.9,0,1.6-0.7,1.6-1.6v-2.7c3.7-0.6,6.4-3.4,6.4-6.6c0-3.7-3.6-6.8-8-6.8c-2.6,0-4.8-1.6-4.8-3.6
			s2.2-3.6,4.8-3.6s4.8,1.6,4.8,3.6c0,0.9,0.7,1.6,1.6,1.6s1.6-0.7,1.6-1.6c0-3.3-2.8-6-6.4-6.6V-82c0-0.9-0.7-1.6-1.6-1.6
			c-0.9,0-1.6,0.7-1.6,1.6v2.7c-3.7,0.6-6.4,3.4-6.4,6.6c0,3.7,3.6,6.8,8,6.8c2.6,0,4.8,1.6,4.8,3.6
			C507.1-60.3,504.9-58.7,502.3-58.7z"/>
		<path d="M480.4-93c0.9,0,1.6-0.7,1.6-1.6v-13.5c0-0.9-0.7-1.6-1.6-1.6s-1.6,0.7-1.6,1.6v13.5C478.7-93.7,479.5-93,480.4-93z"/>
		<path d="M480.4-113.1c0.9,0,1.6-0.7,1.6-1.6v-5.7c0-0.9-0.7-1.6-1.6-1.6s-1.6,0.7-1.6,1.6v5.7
			C478.7-113.8,479.5-113.1,480.4-113.1z"/>
		<path d="M493.8-99.5c0.9,0,1.6-0.7,1.6-1.6v-22.2c0-0.9-0.7-1.6-1.6-1.6s-1.6,0.7-1.6,1.6v22.2C492.1-100.2,492.9-99.5,493.8-99.5
			z"/>
		<path d="M507.1-99.5c0.9,0,1.6-0.7,1.6-1.6v-11.1c0-0.9-0.7-1.6-1.6-1.6c-0.9,0-1.6,0.7-1.6,1.6v11.1
			C505.5-100.2,506.3-99.5,507.1-99.5z"/>
		<path d="M507.1-115.8c0.9,0,1.6-0.7,1.6-1.6v-0.9c0-0.9-0.7-1.6-1.6-1.6c-0.9,0-1.6,0.7-1.6,1.6v0.9
			C505.5-116.5,506.3-115.8,507.1-115.8z"/>
	</g>
</g>
<g>
	<g>
		<path d="M-516.6,78h-1.4c-0.9,0-1.6,0.7-1.6,1.6s0.7,1.6,1.6,1.6h1.4c0.9,0,1.6-0.7,1.6-1.6S-515.7,78-516.6,78z"/>
		<path d="M-522.5,78h-1.6V35.5c0-0.9-0.7-1.6-1.6-1.6c-0.9,0-1.6,0.7-1.6,1.6V78h-9.5V14h9.5v11.1c0,0.9,0.7,1.6,1.6,1.6
			c0.9,0,1.6-0.7,1.6-1.6V12.4c0-0.9-0.7-1.6-1.6-1.6h-12.7c-0.9,0-1.6,0.7-1.6,1.6V78h-2.7V26.8c0-0.9-0.7-1.6-1.6-1.6H-557
			c-0.9,0-1.6,0.7-1.6,1.6V78h-2.7V41.3c0-0.9-0.7-1.6-1.6-1.6h-12.7c-0.9,0-1.6,0.7-1.6,1.6V78h-2.7V54.2c0-0.9-0.7-1.6-1.6-1.6
			h-12.7c-0.9,0-1.6,0.7-1.6,1.6V78h-7.5c-0.9,0-1.6,0.7-1.6,1.6s0.7,1.6,1.6,1.6h80.9c0.9,0,1.6-0.7,1.6-1.6
			C-520.9,78.7-521.6,78-522.5,78z M-555.5,28.4h9.5V78h-9.5V28.4z M-574.1,42.9h9.5V78h-9.5V42.9z M-592.7,55.8h9.5V78h-9.5V55.8z"
			/>
		<path d="M-525.7,28.2c-0.9,0-1.6,0.7-1.6,1.6v1.5c0,0.9,0.7,1.6,1.6,1.6c0.9,0,1.6-0.7,1.6-1.6v-1.5
			C-524.1,28.9-524.8,28.2-525.7,28.2z"/>
		<path d="M-590.1,40.7c0.3,0,0.6-0.1,0.8-0.2c13-7.7,30.5-20,42.7-35.9l2.6,1.8c1,0.7,2.3,0,2.4-1.1l0.8-9.8c0.1-1.2-1.1-2-2.2-1.5
			l-8.9,4.2c-1.1,0.5-1.2,2-0.2,2.6l2.8,2c-12,15.5-29,27.4-41.7,35c-0.8,0.5-1,1.4-0.6,2.2C-591.2,40.4-590.6,40.7-590.1,40.7z"/>
		<path d="M-597.9,45.1c0.3,0,0.5-0.1,0.8-0.2c1.2-0.6,2.6-1.4,4-2.2c0.8-0.4,1-1.4,0.6-2.2s-1.4-1-2.2-0.6c-1.5,0.8-2.8,1.6-4,2.2
			c-0.8,0.4-1.1,1.4-0.7,2.2C-599,44.8-598.5,45.1-597.9,45.1z"/>
		<path d="M-603.4,47.9c0.2,0,0.5,0,0.7-0.1c0,0,0.4-0.2,1.2-0.6c0.8-0.4,1.1-1.4,0.7-2.2c-0.4-0.8-1.4-1.1-2.2-0.7
			c-0.7,0.4-1.1,0.5-1.1,0.5c-0.8,0.4-1.2,1.3-0.8,2.1C-604.6,47.5-604,47.9-603.4,47.9z"/>
	</g>
</g>
<g>
	<g>
		<path d="M-463.3,12.3c0.2,0,0.4,0,0.5-0.1c0.6-0.2,1.1-0.4,1.6-0.6c0.8-0.3,1.2-1.3,0.9-2.1c-0.3-0.8-1.3-1.2-2.1-0.9
			c-0.5,0.2-1,0.4-1.5,0.6c-0.8,0.3-1.3,1.2-1,2.1C-464.5,11.9-463.9,12.3-463.3,12.3z"/>
		<path d="M-465.8,11.5c-0.2-0.9-1.1-1.4-2-1.1c-1.6,0.5-2.8,0.7-5,1c-0.4,0.1-0.8,0.3-1.1,0.7c-0.3,0.4-0.3,0.8-0.3,1.2
			c1.3,6.4,13.5,62.7,34.1,62.7s32.8-56.3,34.1-62.7c0.1-0.4,0-0.9-0.3-1.2c-0.3-0.4-0.6-0.6-1.1-0.7c-9-1.3-15.2-4.8-20.7-7.9
			c-4.5-2.5-8.1-4.6-12-4.6s-7.5,2-12,4.6l-1,0.6c-1.7,1-3.2,1.8-5.3,2.8c-0.8,0.4-1.1,1.3-0.8,2.1c0.4,0.8,1.3,1.1,2.1,0.8
			c2.2-1.1,3.8-2,5.5-2.9l1-0.6c4.1-2.3,7.4-4.1,10.5-4.1s6.3,1.8,10.5,4.1c5.1,2.9,11.4,6.5,20.2,8c-6.1,28.5-18.1,58.5-30.6,58.5
			s-24.5-30-30.6-58.5c1.2-0.2,2.3-0.4,3.7-0.8C-466.1,13.3-465.6,12.4-465.8,11.5z"/>
		<path d="M-466.8,64.6c-2.9-5.1-5.6-11.1-8-17.9c-0.3-0.8-1.2-1.3-2.1-1c-0.8,0.3-1.3,1.2-1,2.1c2.5,6.9,5.3,13.1,8.3,18.3
			c0.3,0.5,0.8,0.8,1.4,0.8c0.3,0,0.5-0.1,0.8-0.2C-466.6,66.3-466.4,65.4-466.8,64.6z"/>
		<path d="M-464.2,68.8c-0.5-0.8-1.5-1-2.2-0.5s-1,1.5-0.5,2.2c0.9,1.4,1.5,2.3,2.4,3.5c0.3,0.4,0.8,0.7,1.3,0.7
			c0.3,0,0.7-0.1,1-0.3c0.7-0.5,0.9-1.5,0.3-2.2C-462.8,71-463.4,70.1-464.2,68.8z"/>
		<path d="M-398.6,6.1c-0.3-0.4-0.8-0.6-1.2-0.6c-11.5,0-18.6-4.1-25-7.6c-4.9-2.8-9.6-5.4-15.2-5.4s-10.3,2.6-15.2,5.4
			c-6.3,3.6-13.5,7.6-25,7.6c-0.5,0-0.9,0.2-1.2,0.6c-0.3,0.4-0.4,0.8-0.4,1.3c0.5,3.1,12.6,75.1,41.8,75.1
			c17,0,28.1-24.5,34.5-45.1c0.3-0.8-0.2-1.7-1.1-2c-0.8-0.3-1.7,0.2-2,1.1c-6.1,19.5-16.5,42.8-31.4,42.8
			c-24.1,0-36.2-59.3-38.3-70.6c11.2-0.4,18.6-4.6,24.7-8c4.7-2.7,8.8-5,13.6-5s8.9,2.3,13.6,5c6,3.4,13.4,7.6,24.7,8
			c-0.5,2.7-1.6,8.2-3.2,14.9c-0.2,0.9,0.3,1.7,1.2,1.9c0.9,0.2,1.7-0.3,1.9-1.2c2.4-9.7,3.6-16.9,3.6-17
			C-398.2,6.9-398.3,6.4-398.6,6.1z"/>
		<path d="M-404.6,28.7c-0.9-0.2-1.7,0.3-2,1.1l-0.2,0.7c-0.1,0.4-0.2,0.7-0.4,1.4c-0.2,0.9,0.2,1.7,1.1,2c0.2,0,0.3,0.1,0.5,0.1
			c0.7,0,1.3-0.5,1.5-1.2c0.2-0.8,0.3-1,0.4-1.5l0.2-0.7C-403.3,29.9-403.8,29-404.6,28.7z"/>
		<path d="M-442.5,47.6C-442.4,47.6-442.4,47.6-442.5,47.6c0.5,0,0.9-0.2,1.2-0.5l18-17.9c0.6-0.6,0.6-1.6,0-2.3
			c-0.6-0.6-1.6-0.6-2.3,0l-16.7,16.7l-8.8-10.4c-0.6-0.7-1.6-0.8-2.3-0.2c-0.7,0.6-0.8,1.6-0.2,2.3l9.9,11.8
			C-443.3,47.3-442.9,47.5-442.5,47.6z"/>
	</g>
</g>
<g>
	<g>
		<path d="M-326.8,16.3h1.7c0.9,0,1.6-0.7,1.6-1.6s-0.7-1.6-1.6-1.6h-1.7c-0.9,0-1.6,0.7-1.6,1.6C-328.4,15.6-327.7,16.3-326.8,16.3
			z"/>
		<path d="M-276.6,59.6h-2.3c-0.9,0-1.6,0.7-1.6,1.6s0.7,1.6,1.6,1.6h2.3c0.9,0,1.6-0.7,1.6-1.6S-275.7,59.6-276.6,59.6z"/>
		<path d="M-283.9,59.6h-49.5l-1-4.7h45c0.7,0,1.3-0.4,1.5-1.1l12.9-38.6c0.2-0.5,0.1-1-0.2-1.4c-0.3-0.4-0.8-0.7-1.3-0.7h-42.7
			c-0.9,0-1.6,0.7-1.6,1.6s0.7,1.6,1.6,1.6h40.5l-11.8,35.4h-44.6l-0.8-3.8c-0.2-0.9-1.1-1.4-1.9-1.2c-0.9,0.2-1.4,1-1.2,1.9l2.9,13
			c0.2,0.7,0.8,1.3,1.6,1.3h6.8c-0.6,0.9-0.9,2-0.9,3.2c0,3.5,2.9,6.4,6.4,6.4s6.4-2.9,6.4-6.4c0-1.2-0.3-2.3-0.9-3.2h15
			c-0.6,0.9-0.9,2-0.9,3.2c0,3.5,2.9,6.4,6.4,6.4s6.4-2.9,6.4-6.4c0-1.2-0.3-2.3-0.9-3.2h6.9c0.9,0,1.6-0.7,1.6-1.6
			S-283.1,59.6-283.9,59.6z M-319.2,66c0,1.8-1.4,3.2-3.2,3.2c-1.8,0-3.2-1.4-3.2-3.2c0-1.8,1.4-3.2,3.2-3.2S-319.2,64.3-319.2,66z
			 M-293.2,66c0,1.8-1.4,3.2-3.2,3.2s-3.2-1.4-3.2-3.2c0-1.8,1.4-3.2,3.2-3.2S-293.2,64.3-293.2,66z"/>
		<path d="M-363.4,11.9h11.8c0.9,0,1.6-0.7,1.6-1.6s-0.7-1.6-1.6-1.6h-10.2V5.8h13.2l7.2,32.8c0.2,0.8,0.8,1.3,1.6,1.3
			c0.1,0,0.2,0,0.3,0c0.9-0.2,1.4-1,1.2-1.9l-4.7-21.5h11.7c0.9,0,1.6-0.7,1.6-1.6s-0.7-1.6-1.6-1.6h-12.4l-2.1-9.3
			c-0.2-0.7-0.8-1.3-1.6-1.3h-16.1c-0.9,0-1.6,0.7-1.6,1.6v6.2C-365,11.2-364.3,11.9-363.4,11.9z"/>
		<path d="M-327.2,23.4v20.3c0,0.9,0.7,1.6,1.6,1.6s1.6-0.7,1.6-1.6V23.4c0-0.9-0.7-1.6-1.6-1.6S-327.2,22.5-327.2,23.4z"/>
		<path d="M-311,43.7V23.4c0-0.9-0.7-1.6-1.6-1.6s-1.6,0.7-1.6,1.6v20.3c0,0.9,0.7,1.6,1.6,1.6S-311,44.5-311,43.7z"/>
		<path d="M-297.9,43.7V23.4c0-0.9-0.7-1.6-1.6-1.6s-1.6,0.7-1.6,1.6v20.3c0,0.9,0.7,1.6,1.6,1.6S-297.9,44.5-297.9,43.7z"/>
		<path d="M-354.1,66.7h-3.3c-0.9,0-1.6,0.7-1.6,1.6s0.7,1.6,1.6,1.6h3.3c0.9,0,1.6-0.7,1.6-1.6S-353.2,66.7-354.1,66.7z"/>
		<path d="M-334.1,66.7h-15.4c-0.9,0-1.6,0.7-1.6,1.6s0.7,1.6,1.6,1.6h15.4c0.9,0,1.6-0.7,1.6-1.6S-333.2,66.7-334.1,66.7z"/>
		<path d="M-348,55.7c0-0.9-0.7-1.6-1.6-1.6h-13.8c-0.9,0-1.6,0.7-1.6,1.6s0.7,1.6,1.6,1.6h13.8C-348.7,57.3-348,56.6-348,55.7z"/>
		<path d="M-344.8,54.1c-0.9,0-1.6,0.7-1.6,1.6s0.7,1.6,1.6,1.6h1.8c0.9,0,1.6-0.7,1.6-1.6s-0.7-1.6-1.6-1.6H-344.8z"/>
		<path d="M-363.4,44.8h3.3c0.9,0,1.6-0.7,1.6-1.6c0-0.9-0.7-1.6-1.6-1.6h-3.3c-0.9,0-1.6,0.7-1.6,1.6
			C-365,44-364.3,44.8-363.4,44.8z"/>
		<path d="M-334.1,43.2c0-0.9-0.7-1.6-1.6-1.6h-20c-0.9,0-1.6,0.7-1.6,1.6c0,0.9,0.7,1.6,1.6,1.6h20
			C-334.9,44.8-334.1,44-334.1,43.2z"/>
	</g>
</g>
<g>
	<g>
		<path d="M-216.3,78.5h-2.6c-0.9,0-1.6,0.7-1.6,1.6s0.7,1.6,1.6,1.6h2.6c0.9,0,1.6-0.7,1.6-1.6S-215.4,78.5-216.3,78.5z"/>
		<path d="M-162.6,20.6h-74.7c-2.4,0-4.4-2-4.4-4.4v-0.3c0-2.4,2-4.4,4.4-4.4h13.9l-7.9,3.8h-4.7c-0.9,0-1.6,0.7-1.6,1.6
			s0.7,1.6,1.6,1.6h69.9c0.9,0,1.6-0.7,1.6-1.6s-0.7-1.6-1.6-1.6h-6.8l-1.8-3.8h11.5c1.8,0,3.2,1.4,3.2,3.2v1.7
			c0,0.9,0.7,1.6,1.6,1.6s1.6-0.7,1.6-1.6v-1.7c0-3.5-2.9-6.4-6.4-6.4h-13l-6.7-14.1c-0.4-0.8-1.3-1.1-2.1-0.8l-31.5,14.8h-20.7
			c-4.2,0-7.6,3.4-7.6,7.6v12.3v45.8c0,4.2,3.4,7.6,7.6,7.6h12.7c0.9,0,1.6-0.7,1.6-1.6s-0.7-1.6-1.6-1.6h-12.7
			c-2.4,0-4.4-2-4.4-4.4V28.3v-5.9c1.3,0.9,2.8,1.4,4.4,1.4h74.7c2.4,0,4.4,2,4.4,4.4v11.7h-15.4c-5.9,0-10.7,4.8-10.7,10.7
			s4.8,10.7,10.7,10.7h15.4V74c0,2.4-2,4.4-4.4,4.4h-46.8c-0.9,0-1.6,0.7-1.6,1.6s0.7,1.6,1.6,1.6h46.8c4.2,0,7.6-3.4,7.6-7.6V59.7
			V41.5V28.3C-155,24.1-158.4,20.6-162.6,20.6z M-176.6,15.3h-47.3l38.6-18.2L-176.6,15.3z M-173.6,58.1c-4.1,0-7.5-3.4-7.5-7.5
			s3.4-7.5,7.5-7.5h15.4v15H-173.6z"/>
		<path d="M-172.3,45.4c-2.9,0-5.2,2.3-5.2,5.2c0,2.9,2.3,5.2,5.2,5.2s5.2-2.3,5.2-5.2S-169.4,45.4-172.3,45.4z M-172.3,52.6
			c-1.1,0-2-0.9-2-2s0.9-2,2-2s2,0.9,2,2S-171.2,52.6-172.3,52.6z"/>
	</g>
</g>
<g>
	<g>
		<path d="M-123.4,64.2c0.9,0,1.6-0.7,1.6-1.6v-2.3c0-0.9-0.7-1.6-1.6-1.6s-1.6,0.7-1.6,1.6v2.2C-125,63.4-124.3,64.2-123.4,64.2z"
			/>
		<path d="M-84.2,15h-35.1c-3.2,0-5.8,2.6-5.8,5.8v34.7c0,0.9,0.7,1.6,1.6,1.6s1.6-0.7,1.6-1.6V20.8c0-1.4,1.1-2.5,2.5-2.5h35.1
			c1.4,0,2.5,1.1,2.5,2.5v58.5H-122V67.6c0-0.9-0.7-1.6-1.6-1.6s-1.6,0.7-1.6,1.6v14.9h46.6V20.8C-78.4,17.6-81,15-84.2,15z"/>
		<path d="M-85.6,35.8V24.7c0-0.9-0.7-1.6-1.6-1.6h-28.9c-0.9,0-1.6,0.7-1.6,1.6v11.1c0,0.9,0.7,1.6,1.6,1.6h28.9
			C-86.3,37.4-85.6,36.7-85.6,35.8z M-88.8,34.2h-25.7v-7.9h25.7V34.2z"/>
		<path d="M-98.8,41.6h-5.9h-3.2h-9.1v9.6v3.2v6.4V64v9.6h9.1h3.2h5.9h3.2h9.1V54.4v-3.2v-9.6h-9.1H-98.8z M-104.6,44.8h5.9v6.4
			h-5.9V44.8z M-98.8,60.8h-5.9v-6.4h5.9V60.8z M-113.8,44.8h5.9v6.4h-5.9V44.8z M-113.8,54.4h5.9v6.4h-5.9V54.4z M-107.9,70.4h-5.9
			V64h5.9V70.4z M-98.8,70.4h-5.9V64h5.9V70.4z M-89.6,70.4h-5.9V64v-3.2v-6.4h5.9V70.4z M-89.6,44.8v6.4h-5.9v-6.4H-89.6z"/>
		<path d="M-96.9,33h5.1c0.9,0,1.6-0.7,1.6-1.6c0-0.9-0.7-1.6-1.6-1.6h-5.1c-0.9,0-1.6,0.7-1.6,1.6C-98.5,32.2-97.8,33-96.9,33z"/>
		<path d="M-36.6,46.6c0.9,0,1.6-0.7,1.6-1.6V2.8c0-5.7-4.6-10.3-10.3-10.3h-37.2c-5.7,0-10.3,4.6-10.3,10.3v4.7
			c0,0.9,0.7,1.6,1.6,1.6h15.8v53.8c0,0.9,0.7,1.6,1.6,1.6h37.2c0.9,0,1.6-0.7,1.6-1.6V50.4c0-0.9-0.7-1.6-1.6-1.6s-1.6,0.7-1.6,1.6
			v11h-34V2.8c0-2.8-1.1-5.2-2.9-7.1h29.8c3.9,0,7.1,3.2,7.1,7.1V45C-38.2,45.9-37.5,46.6-36.6,46.6z M-75.4,2.8v3.1h-14.2V2.8
			c0-3.9,3.2-7.1,7.1-7.1C-78.6-4.3-75.4-1.1-75.4,2.8z"/>
		<path d="M-44.1,1.6h-22c-0.9,0-1.6,0.7-1.6,1.6c0,0.9,0.7,1.6,1.6,1.6h22c0.9,0,1.6-0.7,1.6-1.6C-42.5,2.3-43.2,1.6-44.1,1.6z"/>
		<path d="M-44.1,10.4h-22c-0.9,0-1.6,0.7-1.6,1.6s0.7,1.6,1.6,1.6h22c0.9,0,1.6-0.7,1.6-1.6S-43.2,10.4-44.1,10.4z"/>
		<path d="M-44.1,19.3h-22c-0.9,0-1.6,0.7-1.6,1.6c0,0.9,0.7,1.6,1.6,1.6h22c0.9,0,1.6-0.7,1.6-1.6S-43.2,19.3-44.1,19.3z"/>
		<path d="M-42.5,30.5c0-0.9-0.7-1.6-1.6-1.6H-47c-0.9,0-1.6,0.7-1.6,1.6c0,0.9,0.7,1.6,1.6,1.6h2.9C-43.2,32.1-42.5,31.4-42.5,30.5
			z"/>
		<path d="M-50.3,30.5c0-0.9-0.7-1.6-1.6-1.6h-14.2c-0.9,0-1.6,0.7-1.6,1.6c0,0.9,0.7,1.6,1.6,1.6h14.2
			C-51,32.1-50.3,31.4-50.3,30.5z"/>
		<path d="M-49.5,42.5c1.2,0,2.3,0.7,2.3,1.5c0,0.9,0.7,1.6,1.6,1.6c0.9,0,1.6-0.7,1.6-1.6c0-2.1-1.7-3.9-3.9-4.5v-1.1
			c0-0.9-0.7-1.6-1.6-1.6c-0.9,0-1.6,0.7-1.6,1.6v1.1c-2.3,0.6-3.9,2.4-3.9,4.5c0,2.6,2.5,4.7,5.5,4.7c1.2,0,2.3,0.7,2.3,1.5
			s-1.1,1.5-2.3,1.5s-2.3-0.7-2.3-1.5c0-0.9-0.7-1.6-1.6-1.6c-0.9,0-1.6,0.7-1.6,1.6c0,2.1,1.7,3.9,3.9,4.5v1.1
			c0,0.9,0.7,1.6,1.6,1.6c0.9,0,1.6-0.7,1.6-1.6v-1.1c2.3-0.6,3.9-2.4,3.9-4.5c0-2.6-2.5-4.7-5.5-4.7c-1.2,0-2.3-0.7-2.3-1.5
			C-51.8,43.2-50.7,42.5-49.5,42.5z"/>
	</g>
</g>
<g>
	<g>
		<path d="M72.7,2.5H7.3c-2.8,0-5.1,2.3-5.1,5.1s2.3,5.1,5.1,5.1h2.1v34c0,0.9,0.7,1.6,1.6,1.6s1.6-0.7,1.6-1.6v-41h54.6v80.5
			L66,85.3c-0.7-0.5-1.6-0.3-2.2,0.3l-2.2,2.9l-3-3c-0.6-0.6-1.6-0.6-2.2,0l-3.5,3.2l-3.1-3.2C49.5,85.2,49,85,48.6,85
			s-0.9,0.2-1.2,0.5l-2.8,3l-3.5-3c-0.1,0-0.1-0.1-0.2-0.1c-0.1-0.1-0.2-0.1-0.3-0.2c-0.1,0-0.2-0.1-0.3-0.1s-0.2,0-0.3,0
			s-0.2,0-0.3,0s-0.2,0-0.3,0.1c-0.1,0-0.2,0.1-0.3,0.2c-0.1,0-0.1,0.1-0.2,0.1l-3.6,3.2l-2.8-3c-0.3-0.3-0.7-0.5-1.2-0.5
			c-0.4,0-0.9,0.2-1.2,0.5L27,88.8l-3.4-3.3c-0.6-0.6-1.6-0.6-2.2,0l-3,3l-2.3-2.8c-0.5-0.7-1.5-0.8-2.2-0.3l-1.3,0.9v-34
			c0-0.9-0.7-1.6-1.6-1.6s-1.6,0.7-1.6,1.6v37c0,0.1,0,0.1,0,0.2s0,0.2,0.1,0.3c0,0.1,0.1,0.2,0.1,0.3c0,0,0,0.1,0.1,0.1l0.1,0.1
			c0.1,0.1,0.2,0.2,0.2,0.2c0.1,0.1,0.2,0.1,0.2,0.2c0.1,0,0.2,0.1,0.3,0.1c0.1,0,0.2,0.1,0.3,0.1h0.1c0.1,0,0.1,0,0.2,0
			s0.2,0,0.3-0.1c0.1,0,0.2-0.1,0.3-0.1c0,0,0.1,0,0.1-0.1l2.6-1.8l2.5,3.1c0.3,0.4,0.7,0.6,1.2,0.6s0.9-0.1,1.2-0.5l3.1-3.1
			l3.5,3.2c0.6,0.6,1.6,0.6,2.2-0.1l3-3l2.7,3c0.3,0.3,0.8,0.5,1.2,0.5s0.8-0.1,1.1-0.4l3.8-3.3l3.8,3.3c0.3,0.3,0.7,0.4,1.1,0.4
			c0.4,0,0.9-0.2,1.2-0.5l2.7-3l3,3c0.6,0.6,1.6,0.6,2.2,0.1l3.5-3.2l3.1,3.1c0.3,0.3,0.8,0.5,1.2,0.5c0.5,0,0.9-0.2,1.2-0.6
			l2.5-3.1l2.6,1.8c0,0,0.1,0,0.1,0.1c0.1,0.1,0.2,0.1,0.3,0.1c0.1,0,0.2,0.1,0.3,0.1c0.1,0,0.1,0,0.2,0s0.1,0,0.1,0
			c0.1,0,0.2,0,0.3-0.1c0.1,0,0.2-0.1,0.3-0.1c0.1,0,0.2-0.1,0.2-0.2c0.1-0.1,0.2-0.1,0.2-0.2l0.1-0.1c0,0,0-0.1,0.1-0.1
			c0.1-0.1,0.1-0.2,0.1-0.3c0-0.1,0.1-0.2,0.1-0.3c0-0.1,0-0.1,0-0.2V12.7h2.1c2.8,0,5.1-2.3,5.1-5.1S75.5,2.5,72.7,2.5z M9.5,9.5
			H7.4c-1,0-1.9-0.8-1.9-1.9c0-1,0.8-1.9,1.9-1.9h2.1V9.5z M72.7,9.5h-2.1V5.7h2.1c1,0,1.9,0.8,1.9,1.9C74.6,8.6,73.7,9.5,72.7,9.5z
			"/>
		<path d="M25.5,37.3c-1.8,0-3.2-1.3-3.2-3c0-0.9-0.7-1.6-1.6-1.6s-1.6,0.7-1.6,1.6c0,2.9,2.1,5.3,4.8,6v2.3c0,0.9,0.7,1.6,1.6,1.6
			c0.9,0,1.6-0.7,1.6-1.6v-2.3c2.8-0.7,4.8-3.1,4.8-6c0-3.4-2.9-6.2-6.4-6.2c-1.8,0-3.2-1.3-3.2-3s1.4-3,3.2-3s3.2,1.3,3.2,3
			c0,0.9,0.7,1.6,1.6,1.6s1.6-0.7,1.6-1.6c0-2.9-2.1-5.3-4.8-6v-2.3c0-0.9-0.7-1.6-1.6-1.6c-0.9,0-1.6,0.7-1.6,1.6v2.3
			c-2.8,0.7-4.8,3.1-4.8,6c0,3.4,2.9,6.2,6.4,6.2c1.8,0,3.2,1.3,3.2,3C28.8,35.9,27.3,37.3,25.5,37.3z"/>
		<path d="M61.6,16.8c0.9,0,1.6-0.7,1.6-1.6s-0.7-1.6-1.6-1.6h-3.9c-0.9,0-1.6,0.7-1.6,1.6s0.7,1.6,1.6,1.6H61.6z"/>
		<path d="M52.7,13.6H40c-0.9,0-1.6,0.7-1.6,1.6s0.7,1.6,1.6,1.6h12.7c0.9,0,1.6-0.7,1.6-1.6S53.6,13.6,52.7,13.6z"/>
		<path d="M51.1,23.4c0,0.9,0.7,1.6,1.6,1.6h8.8c0.9,0,1.6-0.7,1.6-1.6s-0.7-1.6-1.6-1.6h-8.8C51.8,21.8,51.1,22.5,51.1,23.4z"/>
		<path d="M44.8,21.8c-0.9,0-1.6,0.7-1.6,1.6s0.7,1.6,1.6,1.6h3.1c0.9,0,1.6-0.7,1.6-1.6s-0.7-1.6-1.6-1.6H44.8z"/>
		<path d="M40,25h0.6c0.9,0,1.6-0.7,1.6-1.6s-0.7-1.6-1.6-1.6H40c-0.9,0-1.6,0.7-1.6,1.6S39.1,25,40,25z"/>
		<path d="M40,33.2h21.6c0.9,0,1.6-0.7,1.6-1.6c0-0.9-0.7-1.6-1.6-1.6H40c-0.9,0-1.6,0.7-1.6,1.6C38.4,32.4,39.1,33.2,40,33.2z"/>
		<path d="M61.6,38.1H47.4c-0.9,0-1.6,0.7-1.6,1.6c0,0.9,0.7,1.6,1.6,1.6h14.1c0.9,0,1.6-0.7,1.6-1.6C63.2,38.8,62.4,38.1,61.6,38.1
			z"/>
		<path d="M40,41.3h2.8c0.9,0,1.6-0.7,1.6-1.6c0-0.9-0.7-1.6-1.6-1.6H40c-0.9,0-1.6,0.7-1.6,1.6S39.1,41.3,40,41.3z"/>
		<path d="M61.6,46.3h-2.8c-0.9,0-1.6,0.7-1.6,1.6c0,0.9,0.7,1.6,1.6,1.6h2.8c0.9,0,1.6-0.7,1.6-1.6S62.4,46.3,61.6,46.3z"/>
		<path d="M40,49.5h14.5c0.9,0,1.6-0.7,1.6-1.6c0-0.9-0.7-1.6-1.6-1.6H40c-0.9,0-1.6,0.7-1.6,1.6S39.1,49.5,40,49.5z"/>
		<path d="M18.4,78.3h43.1c0.9,0,1.6-0.7,1.6-1.6s-0.7-1.6-1.6-1.6H18.4c-0.9,0-1.6,0.7-1.6,1.6C16.8,77.6,17.6,78.3,18.4,78.3z"/>
		<path d="M61.6,67.3h-1.5c-0.9,0-1.6,0.7-1.6,1.6s0.7,1.6,1.6,1.6h1.5c0.9,0,1.6-0.7,1.6-1.6S62.4,67.3,61.6,67.3z"/>
		<path d="M51.2,67.3c-0.9,0-1.6,0.7-1.6,1.6s0.7,1.6,1.6,1.6h4.6c0.9,0,1.6-0.7,1.6-1.6s-0.7-1.6-1.6-1.6H51.2z"/>
		<path d="M18.4,70.5h28.4c0.9,0,1.6-0.7,1.6-1.6s-0.7-1.6-1.6-1.6H18.4c-0.9,0-1.6,0.7-1.6,1.6S17.6,70.5,18.4,70.5z"/>
		<path d="M26.5,61.2c0,0.9,0.7,1.6,1.6,1.6h33.5c0.9,0,1.6-0.7,1.6-1.6s-0.7-1.6-1.6-1.6H28.1C27.2,59.6,26.5,60.3,26.5,61.2z"/>
		<path d="M16.8,61.2c0,0.9,0.7,1.6,1.6,1.6H23c0.9,0,1.6-0.7,1.6-1.6s-0.7-1.6-1.6-1.6h-4.5C17.6,59.6,16.8,60.3,16.8,61.2z"/>
	</g>
</g>
<g>
	<g>
		<path d="M121.4,17.2c0.9,0,1.6-0.7,1.6-1.6v-2c0-0.9-0.7-1.6-1.6-1.6s-1.6,0.7-1.6,1.6v2C119.8,16.5,120.5,17.2,121.4,17.2z"/>
		<path d="M175,57.4h-30c-0.9,0-1.6,0.7-1.6,1.6s0.7,1.6,1.6,1.6h13.4v15.8c0,0.9,0.7,1.6,1.6,1.6s1.6-0.7,1.6-1.6V60.6H175
			c0.9,0,1.6-0.7,1.6-1.6S175.9,57.4,175,57.4z"/>
		<path d="M182.1,57.4H180c-0.9,0-1.6,0.7-1.6,1.6s0.7,1.6,1.6,1.6h2.1c0.9,0,1.6-0.7,1.6-1.6S183,57.4,182.1,57.4z"/>
		<path d="M203.4-3h-4.8h-77.1h-4.8c-0.9,0-1.6,0.7-1.6,1.6c0,0.9,0.7,1.6,1.6,1.6h3.2v8.6c0,0.9,0.7,1.6,1.6,1.6s1.6-0.7,1.6-1.6
			V0.2H197v51.4h-74V20.8c0-0.9-0.7-1.6-1.6-1.6s-1.6,0.7-1.6,1.6v32.4c0,0.9,0.7,1.6,1.6,1.6h77.1c0.9,0,1.6-0.7,1.6-1.6v-53h3.2
			c0.9,0,1.6-0.7,1.6-1.6C205-2.3,204.3-3,203.4-3z"/>
		<path d="M153.9,63.2L146,74.3c-0.5,0.7-0.3,1.7,0.4,2.2c0.3,0.2,0.6,0.3,0.9,0.3c0.5,0,1-0.2,1.3-0.7l7.9-11.1
			c0.5-0.7,0.3-1.7-0.4-2.2S154.4,62.5,153.9,63.2z"/>
		<path d="M166.1,63.2c-0.5-0.7-1.5-0.9-2.2-0.4s-0.9,1.5-0.4,2.2l7.9,11.1c0.3,0.4,0.8,0.7,1.3,0.7c0.3,0,0.6-0.1,0.9-0.3
			c0.7-0.5,0.9-1.5,0.4-2.2L166.1,63.2z"/>
		<path d="M144.3,28.9c0,10.3,8.4,18.7,18.7,18.7s18.7-8.4,18.7-18.7c0-4.2-1.4-8-3.7-11.1l0,0l0,0c-3.4-4.5-8.8-7.4-14.9-7.4
			c-0.9,0-1.6,0.7-1.6,1.6v15.4h-15.4C145,27.3,144.3,28,144.3,28.9z M174.2,18.4l-9.7,7.3V13.5C168.4,13.9,171.8,15.7,174.2,18.4z
			 M162.9,30.5L162.9,30.5L162.9,30.5c0.2,0,0.4,0,0.6-0.1c0.1,0,0.1-0.1,0.2-0.1c0.1,0,0.1-0.1,0.2-0.1l12.3-9.2
			c1.4,2.3,2.2,5,2.2,7.9c0,8.5-6.9,15.4-15.4,15.4c-8,0-14.6-6.1-15.4-13.8C147.6,30.5,162.9,30.5,162.9,30.5z"/>
		<path d="M157.1,4.3c-10.3,0-18.7,8.4-18.7,18.7c0,0.9,0.7,1.6,1.6,1.6h17c0.9,0,1.6-0.7,1.6-1.6V6C158.7,5,157.9,4.3,157.1,4.3z
			 M155.4,21.4h-13.8c0.8-7.2,6.5-13,13.8-13.8V21.4z"/>
	</g>
</g>
<g>
	<g>
		<path d="M239,8.7c0.9,0,1.6-0.7,1.6-1.6v-9c0-1.3,1.1-2.4,2.4-2.4h46c1.3,0,2.4,1.1,2.4,2.4v3.2c0,0.9,0.7,1.6,1.6,1.6
			s1.6-0.7,1.6-1.6v-3.2c0-3.1-2.5-5.6-5.6-5.6h-46c-3.1,0-5.6,2.5-5.6,5.6v9C237.4,8,238.1,8.7,239,8.7z"/>
		<path d="M239,17.7c0.9,0,1.6-0.7,1.6-1.6v-2.9c0-0.9-0.7-1.6-1.6-1.6c-0.9,0-1.6,0.7-1.6,1.6v2.9C237.4,17,238.1,17.7,239,17.7z"
			/>
		<path d="M293.1,48.9c-0.9,0-1.6,0.7-1.6,1.6v26.3c0,1.3-1.1,2.4-2.4,2.4h-46c-1.3,0-2.4-1.1-2.4-2.4V20.6c0-0.9-0.7-1.6-1.6-1.6
			c-0.9,0-1.6,0.7-1.6,1.6v56.3c0,3.1,2.5,5.6,5.6,5.6h46c3.1,0,5.6-2.5,5.6-5.6V50.5C294.7,49.7,293.9,48.9,293.1,48.9z"/>
		<path d="M266,77.3c3.2,0,5.8-2.6,5.8-5.8c0-3.2-2.6-5.8-5.8-5.8c-3.2,0-5.8,2.6-5.8,5.8C260.2,74.7,262.8,77.3,266,77.3z
			 M266,68.8c1.4,0,2.6,1.2,2.6,2.6S267.4,74,266,74s-2.6-1.2-2.6-2.6S264.6,68.8,266,68.8z"/>
		<path d="M315.6,6.1h-44.1c-3.9,0-7,3.1-7,7v25.6c0,3.9,3.1,7,7,7h0.9v8.9c0,0.6,0.3,1.2,0.9,1.4c0.2,0.1,0.5,0.2,0.7,0.2
			c0.3,0,0.6-0.1,0.9-0.3l14.4-10.2h26.2c3.9,0,7-3.1,7-7V13.1C322.6,9.3,319.4,6.1,315.6,6.1z M319.4,38.7c0,2.1-1.7,3.8-3.8,3.8
			h-26.7c-0.3,0-0.7,0.1-0.9,0.3l-12.4,8.7v-7.4c0-0.9-0.7-1.6-1.6-1.6h-2.5c-2.1,0-3.8-1.7-3.8-3.8V13.1c0-2.1,1.7-3.8,3.8-3.8
			h44.1c2.1,0,3.8,1.7,3.8,3.8V38.7z"/>
		<path d="M311.7,17.3h-36.3c-0.9,0-1.6,0.7-1.6,1.6s0.7,1.6,1.6,1.6h36.3c0.9,0,1.6-0.7,1.6-1.6S312.5,17.3,311.7,17.3z"/>
		<path d="M311.7,27.2H306c-0.9,0-1.6,0.7-1.6,1.6c0,0.9,0.7,1.6,1.6,1.6h5.7c0.9,0,1.6-0.7,1.6-1.6
			C313.3,27.9,312.5,27.2,311.7,27.2z"/>
		<path d="M300.9,27.2h-25.5c-0.9,0-1.6,0.7-1.6,1.6c0,0.9,0.7,1.6,1.6,1.6h25.5c0.9,0,1.6-0.7,1.6-1.6S301.8,27.2,300.9,27.2z"/>
	</g>
</g>
<g>
	<g>
		<path d="M384.6,39.9c-7.2,0-13,5.8-13,13s5.8,13,13,13c7.1,0,13-5.8,13-13S391.8,39.9,384.6,39.9z M384.6,62.6
			c-5.4,0-9.8-4.4-9.8-9.8s4.4-9.8,9.8-9.8s9.8,4.4,9.8,9.8S390,62.6,384.6,62.6z"/>
		<path d="M410.6,47.8l-4.2-0.4c-0.3,0-0.6-0.3-0.7-0.6c-0.4-1.5-1.1-3-1.9-4.5c-0.2-0.3-0.1-0.7,0.1-0.9l2.7-3.2
			c1.3-1.6,1.2-4-0.3-5.4l-1.5-1.5c-1.5-1.5-3.8-1.6-5.4-0.3l-3.2,2.7c-0.3,0.2-0.6,0.2-0.9,0.1c-1.4-0.8-2.9-1.4-4.5-1.8
			c-0.3-0.1-0.6-0.4-0.6-0.7l-0.4-4.2c-0.2-2.1-1.9-3.7-4-3.7h-2.2c-2.1,0-3.8,1.6-4,3.7l-0.4,4.2c0,0.3-0.3,0.6-0.6,0.7
			c-1.5,0.4-3,1.1-4.5,1.9c-0.3,0.2-0.7,0.1-0.9-0.1l-3.2-2.7c-1.6-1.3-4-1.2-5.4,0.3l-1.5,1.5c-1.5,1.5-1.6,3.8-0.3,5.4l2.7,3.2
			c0.2,0.3,0.2,0.6,0.1,0.9c-0.8,1.4-1.4,2.9-1.8,4.5c-0.1,0.3-0.4,0.6-0.7,0.6l-4.2,0.4c-2.1,0.2-3.7,1.9-3.7,4v2.2
			c0,2.1,1.6,3.8,3.7,4l4.2,0.4c0.3,0,0.6,0.3,0.7,0.6c0.4,1.5,1.1,3,1.9,4.5c0.2,0.3,0.1,0.7-0.1,0.9l-2.7,3.2
			c-1.3,1.6-1.2,4,0.3,5.4l1.5,1.5c1.5,1.5,3.8,1.6,5.4,0.3l3.2-2.7c0.3-0.2,0.6-0.2,0.9-0.1c1.4,0.8,2.9,1.4,4.5,1.8
			c0.3,0.1,0.6,0.4,0.6,0.7l0.4,4.2c0.2,2.1,1.9,3.7,4,3.7h2.2c2.1,0,3.8-1.6,4-3.7l0.4-4.2c0-0.3,0.3-0.6,0.6-0.7
			c1.5-0.4,3-1.1,4.5-1.8c0.3-0.2,0.7-0.1,0.9,0.1l3.2,2.7c1.6,1.3,4,1.2,5.4-0.3l1.5-1.5c1.5-1.5,1.6-3.8,0.3-5.4l-2.7-3.2
			c-0.2-0.3-0.2-0.6-0.1-0.9c0.8-1.4,1.4-2.9,1.8-4.5c0.1-0.3,0.4-0.6,0.7-0.6l4.2-0.4c2.1-0.2,3.7-1.9,3.7-4v-2.2
			C414.2,49.7,412.7,48,410.6,47.8z M411,54c0,0.4-0.3,0.8-0.8,0.8l-4.2,0.4c-1.7,0.2-3,1.3-3.5,2.9c-0.4,1.3-0.9,2.6-1.6,3.8
			c-0.8,1.5-0.6,3.2,0.4,4.5l2.7,3.2c0.3,0.3,0.3,0.8-0.1,1.1l-1.5,1.5c-0.3,0.3-0.8,0.3-1.1,0.1l-3.2-2.7c-1.3-1.1-3.1-1.2-4.5-0.4
			c-1.2,0.7-2.5,1.2-3.8,1.6c-1.6,0.5-2.7,1.8-2.9,3.5l-0.4,4.2c0,0.4-0.4,0.8-0.8,0.8h-2.2c-0.4,0-0.8-0.3-0.8-0.8l-0.4-4.2
			c-0.2-1.7-1.3-3-2.9-3.5c-1.3-0.4-2.6-0.9-3.8-1.6c-0.6-0.3-1.3-0.5-2-0.5c-0.9,0-1.8,0.3-2.6,0.9l-3.2,2.7
			c-0.3,0.3-0.8,0.3-1.1-0.1l-1.5-1.5c-0.3-0.3-0.3-0.8-0.1-1.1l2.7-3.2c1.1-1.3,1.2-3.1,0.4-4.5c-0.7-1.2-1.2-2.5-1.6-3.8
			c-0.5-1.6-1.8-2.7-3.5-2.9l-4.2-0.4c-0.4,0-0.8-0.4-0.8-0.8v-2.2c0-0.4,0.3-0.8,0.8-0.8l4.2-0.4c1.7-0.2,3-1.3,3.5-2.9
			c0.4-1.3,0.9-2.6,1.6-3.8c0.8-1.5,0.6-3.2-0.4-4.5l-2.7-3.2c-0.3-0.3-0.2-0.8,0.1-1.1l1.5-1.5c0.3-0.3,0.8-0.3,1.1-0.1l3.2,2.7
			c1.3,1.1,3.1,1.2,4.5,0.4c1.2-0.7,2.5-1.2,3.8-1.6c1.6-0.5,2.7-1.8,2.9-3.5l0.4-4.2c0-0.4,0.4-0.8,0.8-0.8h2.2
			c0.4,0,0.8,0.3,0.8,0.8l0.4,4.2c0.2,1.7,1.3,3,2.9,3.5c1.3,0.4,2.6,0.9,3.8,1.6c1.5,0.8,3.2,0.6,4.5-0.4l3.2-2.7
			c0.3-0.3,0.8-0.3,1.1,0.1l1.5,1.5c0.3,0.3,0.3,0.8,0.1,1.1l-2.7,3.2c-1.1,1.3-1.2,3.1-0.4,4.5c0.7,1.2,1.2,2.5,1.6,3.8
			c0.5,1.6,1.8,2.7,3.5,2.9l4.2,0.4c0.4,0,0.8,0.4,0.8,0.8V54H411z"/>
		<path d="M425.9,5.8c-5.5-2.3-12,0.3-14.3,5.8s0.3,12,5.8,14.3c1.4,0.6,2.8,0.9,4.2,0.9c4.3,0,8.3-2.5,10.1-6.7
			C434,14.6,431.4,8.2,425.9,5.8z M428.7,18.9c-1.7,3.9-6.2,5.7-10.1,4.1c-3.9-1.7-5.7-6.2-4.1-10.1c1.7-3.9,6.2-5.7,10.1-4.1
			C428.5,10.4,430.4,15,428.7,18.9z"/>
		<path d="M443,20.1L443,20.1l-3-1.6c-0.1-0.1-0.2-0.2-0.2-0.4c0.2-1.3,0.2-2.7,0-4c0-0.2,0.1-0.3,0.2-0.4l3-1.6
			c1.7-0.9,2.4-2.8,1.7-4.6L444,5.9c-0.7-1.7-2.6-2.6-4.4-2.1l-3.3,1c-0.2,0-0.3,0-0.4-0.1c-0.8-1.1-1.8-2-2.8-2.9
			c-0.1-0.1-0.2-0.3-0.1-0.4l1-3.3c0.6-1.8-0.3-3.7-2-4.4L430.4-7c-1.7-0.7-3.7,0-4.6,1.6l-1.6,3c-0.1,0.1-0.2,0.2-0.4,0.2
			c-1.3-0.2-2.7-0.2-4,0c-0.1,0-0.3-0.1-0.4-0.2l-1.6-3c-0.9-1.7-2.8-2.4-4.6-1.7l-1.6,0.7c-1.7,0.7-2.6,2.6-2.1,4.4l1,3.3
			c0,0.2,0,0.3-0.1,0.4c-1.1,0.8-2,1.8-2.9,2.8c-0.1,0.1-0.3,0.2-0.4,0.1l-3.3-1c-1.8-0.6-3.7,0.3-4.4,2l-0.7,1.6
			c-0.7,1.7,0,3.7,1.6,4.6l3,1.6c0.1,0.1,0.2,0.2,0.2,0.4c-0.2,1.3-0.2,2.7,0,4c0,0.2-0.1,0.3-0.2,0.4l-3,1.6
			c-1.7,0.9-2.4,2.8-1.7,4.6l0.7,1.6c0.7,1.7,2.6,2.6,4.4,2.1l3.3-1c0.2,0,0.3,0,0.4,0.1c0.8,1.1,1.8,2,2.8,2.9
			c0.1,0.1,0.2,0.3,0.1,0.4l-1,3.3c-0.6,1.8,0.3,3.7,2,4.4l1.6,0.7c1.7,0.7,3.7,0,4.6-1.6l1.6-3c0.1-0.1,0.2-0.2,0.4-0.2
			c1.3,0.2,2.7,0.2,4,0c0.2,0,0.3,0.1,0.4,0.2l1.6,3c0.6,1.2,1.9,1.9,3.2,1.9c0.5,0,0.9-0.1,1.4-0.3l1.6-0.7
			c1.7-0.7,2.6-2.6,2.1-4.4l-1-3.3c0-0.2,0-0.3,0.1-0.4c1.1-0.8,2-1.8,2.9-2.8c0.1-0.1,0.3-0.2,0.4-0.1l3.3,1c1.8,0.6,3.7-0.3,4.4-2
			l0.7-1.6C445.3,22.9,444.6,20.9,443,20.1z M441.6,23.4l-0.7,1.6c-0.1,0.2-0.3,0.3-0.5,0.2l-3.3-1c-1.4-0.4-2.9,0-3.9,1.2
			c-0.7,0.9-1.5,1.6-2.4,2.3c-1.2,0.9-1.7,2.4-1.2,3.9l1,3.3c0.1,0.2,0,0.4-0.2,0.5l-1.6,0.7c-0.2,0.1-0.4,0-0.5-0.2l-1.6-3
			c-0.6-1.2-1.9-1.9-3.2-1.9c-0.1,0-0.3,0-0.4,0c-1.1,0.1-2.2,0.1-3.3,0c-1.5-0.2-2.9,0.6-3.6,1.9l-1.6,3c-0.1,0.2-0.3,0.3-0.5,0.2
			l-1.6-0.7c-0.2-0.1-0.3-0.3-0.2-0.5l1-3.3c0.4-1.4,0-2.9-1.2-3.9c-0.9-0.7-1.6-1.5-2.3-2.4c-0.9-1.2-2.4-1.7-3.9-1.2l-3.3,1
			c-0.2,0.1-0.4,0-0.5-0.2l-0.7-1.6c-0.1-0.2,0-0.4,0.2-0.5l3-1.6c1.3-0.7,2.1-2.1,1.9-3.6c-0.1-1.1-0.1-2.2,0-3.3
			c0.2-1.5-0.6-2.9-1.9-3.6l-3-1.6c-0.2-0.1-0.3-0.3-0.2-0.5l0.7-1.6c0.1-0.2,0.3-0.3,0.5-0.2l3.3,1c1.4,0.4,2.9,0,3.9-1.2
			c0.7-0.9,1.5-1.6,2.4-2.3c1.2-0.9,1.7-2.4,1.2-3.9l-1-3.3c-0.1-0.2,0-0.4,0.2-0.5l1.6-0.7c0.2-0.1,0.4,0,0.5,0.2l1.6,3
			c0.7,1.3,2.1,2.1,3.6,1.9c1.1-0.1,2.2-0.1,3.3,0c1.5,0.2,2.9-0.6,3.6-1.9l1.6-3c0.1-0.2,0.3-0.3,0.5-0.2l1.6,0.7
			c0.2,0.1,0.3,0.3,0.2,0.5l-1,3.3c-0.4,1.4,0,2.9,1.2,3.9c0.9,0.7,1.6,1.5,2.3,2.4c0.9,1.2,2.4,1.7,3.9,1.2l3.3-1
			c0.2-0.1,0.4,0,0.5,0.2l0.7,1.6c0.1,0.2,0,0.4-0.2,0.5l-3,1.6c-1.3,0.7-2.1,2.1-1.9,3.6c0.1,1.1,0.1,2.2,0,3.3
			c-0.2,1.5,0.6,2.9,1.9,3.6l3,1.6C441.6,23,441.7,23.2,441.6,23.4z"/>
	</g>
</g>
<g>
	<g>
		<path d="M564.8,74l-4.6-7.9v-51c0-0.9-0.7-1.6-1.6-1.6h-28.8c-0.9,0-1.6,0.7-1.6,1.6s0.7,1.6,1.6,1.6H557v48.2h-74v-7.2h46.2l0,0
			l0,0h18.5c0.9,0,1.6-0.7,1.6-1.6s-0.7-1.6-1.6-1.6H544c-0.1-5.5-4.5-9.9-10-9.9c-0.7,0-1.5,0.1-2.1,0.2c-0.9,0.2-1.4,1-1.2,1.9
			s1,1.4,1.9,1.2c0.5-0.1,1-0.2,1.5-0.2c3.7,0,6.8,3,6.8,6.7h-9.7c0-0.4,0.1-0.7,0.1-1.1c0-5.7-4.2-10.3-9.6-11.1v-8.9
			c0-0.9-0.7-1.6-1.6-1.6s-1.6,0.7-1.6,1.6v8.9c-5.4,0.8-9.6,5.5-9.6,11.1c0,0.4,0,0.7,0.1,1.1h-9.7c0.1-3.7,3.1-6.7,6.8-6.7
			c0.4,0,0.8,0,1.2,0.1c0.9,0.2,1.7-0.4,1.9-1.3c0.2-0.9-0.4-1.7-1.3-1.9c-0.6-0.1-1.2-0.2-1.7-0.2c-5.5,0-10,4.5-10,9.9h-14.5l0,0
			c-0.9,0-1.6,0.7-1.6,1.6v10l-4.6,7.9c-0.3,0.5-0.3,1.1,0,1.6s0.8,0.8,1.4,0.8h9.5c0.9,0,1.6-0.7,1.6-1.6s-0.7-1.6-1.6-1.6h-6.7
			l3-5.1H558l3,5.1h-61c-0.9,0-1.6,0.7-1.6,1.6s0.7,1.6,1.6,1.6h63.8c0.6,0,1.1-0.3,1.4-0.8C565.1,75.1,565.1,74.5,564.8,74z
			 M512,53.3c0-4.4,3.6-8,8-8s8,3.6,8,8c0,0.4,0,0.7-0.1,1.1H512C512,54.1,512,53.7,512,53.3z"/>
		<path d="M493.1,73.2h-1.9c-0.9,0-1.6,0.7-1.6,1.6s0.7,1.6,1.6,1.6h1.9c0.9,0,1.6-0.7,1.6-1.6S494,73.2,493.1,73.2z"/>
		<path d="M508.2,16.7h1.3c0.9,0,1.6-0.7,1.6-1.6s-0.7-1.6-1.6-1.6h-1.3c-0.9,0-1.6,0.7-1.6,1.6S507.3,16.7,508.2,16.7z"/>
		<path d="M481.4,50.5c0.9,0,1.6-0.7,1.6-1.6V16.7h20.8c0.9,0,1.6-0.7,1.6-1.6s-0.7-1.6-1.6-1.6h-22.4c-0.9,0-1.6,0.7-1.6,1.6V49
			C479.8,49.8,480.5,50.5,481.4,50.5z"/>
		<path d="M552.9,57.6c0.9,0,1.6-0.7,1.6-1.6s-0.7-1.6-1.6-1.6h-0.7c-0.9,0-1.6,0.7-1.6,1.6s0.7,1.6,1.6,1.6H552.9z"/>
		<path d="M507.9,29.6v8.3c0,0.9,0.7,1.6,1.6,1.6h4.2c0.9,0,1.6-0.7,1.6-1.6c0-0.9-0.7-1.6-1.6-1.6h-2.5v-5.2c3.2-0.7,5.5-3.6,5.5-7
			V5.9c0-0.4,0.2-0.8,0.4-1.2l2.9-2.4l2.9,2.4c0.3,0.3,0.4,0.7,0.4,1.2V24c0,3.4,2.4,6.2,5.5,7v6.8c0,0.9,0.7,1.6,1.6,1.6
			c0.9,0,1.6-0.7,1.6-1.6v-8.3c0-0.9-0.7-1.6-1.6-1.6c-2.2,0-3.9-1.8-3.9-3.9V5.9c0-1.3-0.5-2.5-1.4-3.4L525,2.4L521-1
			c-0.6-0.5-1.5-0.5-2.1,0l-4,3.4l-0.1,0.1c-0.9,0.9-1.4,2.2-1.4,3.4V24c0,2.2-1.8,3.9-3.9,3.9C508.7,28,507.9,28.7,507.9,29.6z"/>
	</g>
</g>
</svg>
