<?xml version="1.0" encoding="iso-8859-1"?>
<!-- Generator: Adobe Illustrator 19.0.0, SVG Export Plug-In . SVG Version: 6.00 Build 0)  -->
<svg xmlns="http://www.w3.org/2000/svg" xmlns:xlink="http://www.w3.org/1999/xlink" version="1.1" id="Layer_1" x="0px" y="0px" viewBox="0 0 512 512" style="enable-background:new 0 0 512 512;" xml:space="preserve" width="512" height="512">
<g id="XMLID_396_">
	<path id="XMLID_397_" d="M354.059,302.762c-4.143,0-7.5,3.357-7.5,7.5v35.129c0,6.58-5.353,11.933-11.933,11.933h-98.364   c-4.143,0-7.5,3.357-7.5,7.5s3.357,7.5,7.5,7.5h98.364c14.851,0,26.933-12.082,26.933-26.933v-35.129   C361.559,306.119,358.201,302.762,354.059,302.762z"/>
	<path id="XMLID_398_" d="M335.025,187.151v-32.454c0-15.695-4.617-30.877-13.353-43.905c-2.308-3.44-6.967-4.359-10.406-2.053   c-3.44,2.307-4.359,6.966-2.053,10.406c7.073,10.549,10.812,22.842,10.812,35.552v32.444h-19.007v-32.444   c0-24.823-20.195-45.018-45.019-45.018s-45.019,20.194-45.019,45.018v32.444h-19.007v-32.444c0-35.304,28.722-64.025,64.025-64.025   c10.564,0,21.045,2.644,30.309,7.646c3.646,1.967,8.194,0.608,10.163-3.036c1.968-3.645,0.608-8.195-3.036-10.163   c-11.446-6.18-24.391-9.446-37.436-9.446c-43.575,0-79.025,35.45-79.025,79.025v32.454c-14.666,0.215-26.533,12.206-26.533,26.922   v131.317c0,14.851,12.082,26.933,26.933,26.933h24.364c4.143,0,7.5-3.357,7.5-7.5s-3.357-7.5-7.5-7.5h-24.364   c-6.58,0-11.933-5.353-11.933-11.933v-94.392h181.117v24.739c0,4.143,3.357,7.5,7.5,7.5s7.5-3.357,7.5-7.5v-61.665   C361.559,199.357,349.692,187.366,335.025,187.151z M225.981,154.696c0-16.552,13.466-30.018,30.019-30.018   s30.019,13.466,30.019,30.018v32.444h-60.037V154.696z M165.441,235.999v-21.926c0-6.58,5.353-11.933,11.933-11.933h157.252   c6.58,0,11.933,5.353,11.933,11.933v21.926H165.441z"/>
	<path id="XMLID_402_" d="M256,339.532c4.143,0,7.5-3.357,7.5-7.5v-14.039c10.049-3.188,17.352-12.602,17.352-23.692   c0-13.703-11.148-24.852-24.852-24.852s-24.852,11.148-24.852,24.852c0,11.09,7.303,20.504,17.352,23.692v14.039   C248.5,336.175,251.857,339.532,256,339.532z M256,284.449c5.433,0,9.852,4.419,9.852,9.852s-4.419,9.852-9.852,9.852   s-9.852-4.419-9.852-9.852S250.567,284.449,256,284.449z"/>
	<path id="XMLID_405_" d="M448.221,190.968c-1.989,0-3.896,0.79-5.304,2.197l-30.287,30.288h-27.172c-4.143,0-7.5,3.357-7.5,7.5   s3.357,7.5,7.5,7.5h30.278c1.989,0,3.896-0.79,5.304-2.196l30.287-30.289h14.6c3.144,9.374,12.005,16.149,22.423,16.149   c13.04,0,23.649-10.609,23.649-23.649s-10.609-23.649-23.649-23.649c-10.419,0-19.279,6.776-22.423,16.149H448.221z    M488.351,189.818c4.77,0,8.649,3.88,8.649,8.649s-3.88,8.649-8.649,8.649s-8.649-3.88-8.649-8.649   S483.581,189.818,488.351,189.818z"/>
	<path id="XMLID_408_" d="M488.351,292.354c-10.419,0-19.279,6.776-22.423,16.149h-14.6l-30.287-30.289   c-1.407-1.406-3.314-2.196-5.304-2.196h-30.278c-4.143,0-7.5,3.357-7.5,7.5s3.357,7.5,7.5,7.5h27.172l30.287,30.288   c1.407,1.407,3.314,2.197,5.304,2.197h17.707c3.144,9.374,12.005,16.149,22.423,16.149c13.04,0,23.649-10.609,23.649-23.649   S501.391,292.354,488.351,292.354z M488.351,324.652c-4.77,0-8.649-3.88-8.649-8.649s3.88-8.649,8.649-8.649   s8.649,3.88,8.649,8.649S493.12,324.652,488.351,324.652z"/>
	<path id="XMLID_411_" d="M126.542,276.018H96.264c-1.989,0-3.896,0.79-5.304,2.197l-30.287,30.288H23.649   c-4.143,0-7.5,3.357-7.5,7.5s3.357,7.5,7.5,7.5h40.13c1.989,0,3.896-0.79,5.304-2.197l30.287-30.288h27.172   c4.143,0,7.5-3.357,7.5-7.5S130.685,276.018,126.542,276.018z"/>
	<path id="XMLID_412_" d="M37.632,154.403H90.95l30.288,30.289c1.465,1.464,3.385,2.196,5.304,2.196s3.839-0.732,5.304-2.196   c2.929-2.93,2.929-7.678,0-10.607L99.36,141.6c-1.407-1.406-3.314-2.196-5.304-2.196H37.632c-4.143,0-7.5,3.357-7.5,7.5   S33.489,154.403,37.632,154.403z"/>
	<path id="XMLID_413_" d="M46.073,238.567h80.469c4.143,0,7.5-3.357,7.5-7.5s-3.357-7.5-7.5-7.5H46.073   c-3.144-9.374-12.004-16.148-22.423-16.148C10.609,207.419,0,218.027,0,231.067s10.609,23.649,23.649,23.649   C34.068,254.717,42.929,247.941,46.073,238.567z M15,231.067c0-4.769,3.88-8.648,8.649-8.648s8.649,3.88,8.649,8.648   c0,4.77-3.88,8.649-8.649,8.649S15,235.837,15,231.067z"/>
	<path id="XMLID_416_" d="M133.363,370.122l-19.087,19.087c-1.406,1.407-2.196,3.314-2.196,5.304v48.067   c-9.374,3.144-16.149,12.005-16.149,22.423c0,13.04,10.609,23.649,23.649,23.649s23.648-10.609,23.648-23.649   c0-10.419-6.775-19.279-16.148-22.423v-44.961l16.891-16.89c2.929-2.93,2.929-7.678,0-10.607   C141.041,367.194,136.293,367.194,133.363,370.122z M119.58,473.652c-4.77,0-8.649-3.88-8.649-8.649s3.88-8.649,8.649-8.649   c4.769,0,8.648,3.88,8.648,8.649S124.349,473.652,119.58,473.652z"/>
	<path id="XMLID_419_" d="M382.304,370.122c-2.93-2.928-7.678-2.928-10.607,0c-2.929,2.93-2.929,7.678,0,10.607l16.891,16.89v67.384   c0,4.143,3.357,7.5,7.5,7.5s7.5-3.357,7.5-7.5v-70.49c0-1.989-0.79-3.896-2.196-5.304L382.304,370.122z"/>
	<path id="XMLID_420_" d="M377,129.649c1.919,0,3.839-0.732,5.304-2.196l19.087-19.087c1.406-1.407,2.196-3.314,2.196-5.304V69.42   c9.374-3.144,16.149-12.005,16.149-22.423c0-13.04-10.609-23.649-23.649-23.649s-23.649,10.609-23.649,23.649   c0,10.419,6.776,19.279,16.149,22.423v30.536l-16.891,16.89c-2.929,2.93-2.929,7.678,0,10.607   C373.161,128.917,375.081,129.649,377,129.649z M396.087,38.348c4.77,0,8.649,3.88,8.649,8.649s-3.88,8.649-8.649,8.649   s-8.649-3.88-8.649-8.649S391.317,38.348,396.087,38.348z"/>
	<path id="XMLID_423_" d="M127.08,99.956V43.997c0-4.143-3.357-7.5-7.5-7.5s-7.5,3.357-7.5,7.5v59.065   c0,1.989,0.79,3.896,2.196,5.304l19.087,19.087c1.465,1.464,3.385,2.196,5.304,2.196s3.839-0.732,5.304-2.196   c2.929-2.93,2.929-7.678,0-10.607L127.08,99.956z"/>
	<path id="XMLID_424_" d="M377,161.646c-4.143,0-7.5,3.357-7.5,7.5s3.357,7.5,7.5,7.5h33.559c1.989,0,3.896-0.79,5.304-2.196   l48.031-48.031c1.406-1.407,2.196-3.314,2.196-5.304V83.171c0-4.143-3.357-7.5-7.5-7.5s-7.5,3.357-7.5,7.5v34.838l-43.638,43.638   H377z"/>
	<path id="XMLID_425_" d="M472.201,369.61h-27.604l-48.293-48.294c-2.93-2.928-7.678-2.928-10.607,0   c-2.929,2.93-2.929,7.678,0,10.607l50.49,50.49c1.407,1.406,3.314,2.196,5.304,2.196h30.711c4.143,0,7.5-3.357,7.5-7.5   S476.344,369.61,472.201,369.61z"/>
	<path id="XMLID_426_" d="M102.141,342.175h24.401c4.143,0,7.5-3.357,7.5-7.5s-3.357-7.5-7.5-7.5H99.034   c-1.989,0-3.896,0.79-5.304,2.196l-45.83,45.83c-3.107-1.504-6.591-2.349-10.269-2.349c-13.04,0-23.649,10.609-23.649,23.649   s10.609,23.648,23.649,23.648s23.649-10.608,23.649-23.648c0-3.902-0.956-7.583-2.636-10.83L102.141,342.175z M37.632,405.15   c-4.77,0-8.649-3.88-8.649-8.648c0-4.77,3.88-8.649,8.649-8.649s8.649,3.88,8.649,8.649   C46.281,401.271,42.401,405.15,37.632,405.15z"/>
	<path id="XMLID_429_" d="M298.97,400.115H213.03c-13.34,0-24.192,10.853-24.192,24.192S199.69,448.5,213.03,448.5h85.939   c13.34,0,24.192-10.853,24.192-24.192S312.31,400.115,298.97,400.115z M298.97,433.5H213.03c-5.068,0-9.192-4.124-9.192-9.192   s4.124-9.192,9.192-9.192h85.939c5.068,0,9.192,4.124,9.192,9.192S304.038,433.5,298.97,433.5z"/>
</g>















</svg>
