<?xml version="1.0" encoding="utf-8"?>
<!-- Svg Vector Icons : http://www.onlinewebfonts.com/icon -->
<!DOCTYPE svg PUBLIC "-//W3C//DTD SVG 1.1//EN" "http://www.w3.org/Graphics/SVG/1.1/DTD/svg11.dtd">
<svg version="1.1" xmlns="http://www.w3.org/2000/svg" xmlns:xlink="http://www.w3.org/1999/xlink" x="0px" y="0px" viewBox="0 0 1000 1000" enable-background="new 0 0 1000 1000" xml:space="preserve">
<metadata> Svg Vector Icons : http://www.onlinewebfonts.com/icon </metadata>
<g><g transform="translate(0.000000,511.000000) scale(0.100000,-0.100000)"><path d="M3841.4,4976c-897.5-193.1-1595.3-943.6-1812.5-1953c-52.7-245.8-52.7-770.2,0-1016c76.8-362.1,212.9-693.4,401.6-976.5c129.5-197.5,388.4-467.4,570.5-603.4c76.8-54.9,131.7-107.5,122.9-116.3c-11-6.6-599.1-326.9-1312.2-711c-711-384-1334.2-726.3-1382.4-759.3c-114.1-81.2-197.5-188.7-269.9-344.5C100-1629,100-1633.4,100-2122.7v-493.7l61.4-122.9c79-162.4,201.9-300.6,346.7-386.2c239.2-142.6,164.6-138.2,2470.8-138.2h2091.2v186.5v186.5H2992.2c-1345.1,0-2115.4,8.8-2179,24.1c-136.1,30.7-230.4,101-296.2,219.4c-52.7,98.7-54.9,114.1-54.9,528.8c0,474,11,520,155.8,634.2c41.7,32.9,719.7,406,1507.5,829.5l1432.9,772.4l190.9-50.5c269.9-70.2,680.3-68,952.4,2.2l190.9,50.5l939.2-509.1c515.7-280.9,980.9-535.4,1029.1-564l90-50.5l81.2,151.4c43.9,83.4,79,160.2,79,171.2c0,11-403.8,239.2-899.7,509.1C5717.6,98,5311.6,324,5311.6,332.8c0,6.6,52.7,48.3,114.1,90s173.3,136.1,245.8,208.5c713.2,704.4,963.3,1777.4,638.6,2745.1c-256.7,765.8-879.9,1375.8-1610.7,1579.9C4526,5004.6,4023.5,5015.5,3841.4,4976z M4708.2,4570.1c706.6-223.8,1206.9-842.6,1338.6-1648c68-419.1,28.5-853.6-111.9-1246.4c-109.7-309.4-250.2-528.8-491.5-770.2c-171.2-173.4-245.8-228.2-408.1-313.8C4732.3,435.9,4543.6,392,4214.4,392c-324.8,2.2-471.8,35.1-757.1,173.3C2254.9,1146.9,1971.8,3029.6,2930.7,4061c263.3,283.1,566.1,460.8,921.6,539.8C4076.2,4651.3,4504.1,4635.9,4708.2,4570.1z"/><path d="M7721-1699.2l-6.6-895.3l-893.1-6.6l-895.3-4.4V-2792v-186.5h899.7h899.7v-899.7v-901.9l182.1,6.6l179.9,6.6l6.6,893.1l4.4,895.3l895.3,4.4l893.1,6.6l6.6,182.1l6.6,179.9h-901.9h-899.7v899.7v899.7h-186.5h-186.5L7721-1699.2z"/></g></g>
</svg>