<?xml version="1.0"?>
<svg xmlns="http://www.w3.org/2000/svg" viewBox="0 0 64 64" width="512" height="512"><g id="Network"><path d="M62,32a4,4,0,0,0-3.3-3.929,27.01,27.01,0,0,0-22.77-22.78,3.99,3.99,0,0,0-7.856,0A27.006,27.006,0,0,0,5.3,28.071a3.989,3.989,0,0,0,0,7.858,27.01,27.01,0,0,0,22.77,22.78,3.99,3.99,0,0,0,7.856,0A27.006,27.006,0,0,0,58.7,35.929,4,4,0,0,0,62,32Zm-5.3-3.765A3.989,3.989,0,0,0,54.142,31H49.858a4,4,0,0,0-3.022-2.909,45.607,45.607,0,0,0-1-6.557,3.985,3.985,0,0,0,2.155-3.424,27.565,27.565,0,0,0,3.514-1.7A24.631,24.631,0,0,1,56.7,28.235ZM35.472,56.052A3.99,3.99,0,0,0,33,54.142V47.858a3.991,3.991,0,0,0,2.805-2.687c1.462.119,2.889.3,4.268.549a4,4,0,0,0,1.707,2.6C40.1,52.033,37.91,54.725,35.472,56.052Zm-6.944,0c-2.438-1.327-4.632-4.019-6.308-7.728a4,4,0,0,0,1.708-2.61c1.355-.247,2.782-.433,4.264-.555A3.989,3.989,0,0,0,31,47.858v6.284A3.99,3.99,0,0,0,28.528,56.052Zm0-48.107A3.992,3.992,0,0,0,31,9.858v6.284a3.989,3.989,0,0,0-2.808,2.7c-1.466-.121-2.879-.3-4.222-.547.008-.1.03-.193.03-.294a3.978,3.978,0,0,0-1.441-3.049C24.188,11.622,26.263,9.181,28.526,7.945Zm6.948,0c2.263,1.236,4.338,3.677,5.967,7.006A3.978,3.978,0,0,0,40,18c0,.1.022.2.03.294-1.343.243-2.756.426-4.222.547A3.989,3.989,0,0,0,33,16.142V9.858A3.992,3.992,0,0,0,35.474,7.945ZM42.142,31H35.858A4,4,0,0,0,33,28.142V23.858a4,4,0,0,0,2.908-3.019,46.107,46.107,0,0,0,4.762-.63,3.993,3.993,0,0,0,3.217,1.78,43.586,43.586,0,0,1,.951,6.2A3.988,3.988,0,0,0,42.142,31ZM32,46a2,2,0,1,1,2-2A2,2,0,0,1,32,46Zm0-12a2,2,0,1,1,2-2A2,2,0,0,1,32,34Zm0-16a2,2,0,1,1-2,2A2,2,0,0,1,32,18Zm12,2a2,2,0,1,1,2-2A2,2,0,0,1,44,20ZM22,18a2,2,0,1,1-2-2A2,2,0,0,1,22,18Zm-1.887,3.989a3.993,3.993,0,0,0,3.217-1.78,46.107,46.107,0,0,0,4.762.63A4,4,0,0,0,31,23.858v4.284A4,4,0,0,0,28.142,31H21.858a3.988,3.988,0,0,0-2.7-2.807A43.586,43.586,0,0,1,20.113,21.989ZM18,30a2,2,0,1,1-2,2A2,2,0,0,1,18,30Zm1.162,5.807A3.988,3.988,0,0,0,21.858,33h6.284A4,4,0,0,0,31,35.858v4.284a4,4,0,0,0-2.908,3.019c-1.5.122-2.945.3-4.325.548A3.992,3.992,0,0,0,20,41c-.039,0-.075.01-.113.011A44.108,44.108,0,0,1,19.162,35.807ZM20,43a2,2,0,1,1-2,2A2,2,0,0,1,20,43Zm24,4a2,2,0,1,1,2-2A2,2,0,0,1,44,47Zm0-6a3.992,3.992,0,0,0-3.771,2.72q-2.1-.367-4.317-.547A4,4,0,0,0,33,40.142V35.858A4,4,0,0,0,35.858,33h6.284a3.99,3.99,0,0,0,2.7,2.808,43.4,43.4,0,0,1-.735,5.2C44.069,41.01,44.036,41,44,41Zm2-7a2,2,0,1,1,2-2A2,2,0,0,1,46,34Zm4.162-19.123a25.669,25.669,0,0,1-2.641,1.265,3.944,3.944,0,0,0-4.284-2.065A20.592,20.592,0,0,0,38.9,7.985,24.763,24.763,0,0,1,50.162,14.877ZM32,4a2,2,0,1,1-2,2A2,2,0,0,1,32,4ZM25.1,7.985a20.592,20.592,0,0,0-4.34,6.092,3.944,3.944,0,0,0-4.284,2.065,25.474,25.474,0,0,1-2.641-1.266A24.749,24.749,0,0,1,25.1,7.985ZM12.5,16.4a27.434,27.434,0,0,0,3.514,1.706,3.985,3.985,0,0,0,2.155,3.424,45.607,45.607,0,0,0-1,6.557A4,4,0,0,0,14.142,31H9.858A3.989,3.989,0,0,0,7.3,28.235,24.649,24.649,0,0,1,12.5,16.4ZM4,32a2,2,0,1,1,2,2A2,2,0,0,1,4,32Zm3.3,3.765A3.989,3.989,0,0,0,9.858,33h4.284a4,4,0,0,0,3.022,2.909,46.32,46.32,0,0,0,.8,5.667A3.988,3.988,0,0,0,16,45a4.032,4.032,0,0,0,.1.856A27.46,27.46,0,0,0,12.5,47.6,24.631,24.631,0,0,1,7.3,35.765Zm6.54,13.358a26.294,26.294,0,0,1,3.181-1.483A3.974,3.974,0,0,0,20,49c.109,0,.212-.024.319-.032A21.3,21.3,0,0,0,25.1,56.015,24.744,24.744,0,0,1,13.838,49.123ZM32,60a2,2,0,1,1,2-2A2,2,0,0,1,32,60Zm6.9-3.984a21.3,21.3,0,0,0,4.785-7.048c.107.008.21.032.319.032a3.978,3.978,0,0,0,2.982-1.36,27.12,27.12,0,0,1,3.177,1.487A24.752,24.752,0,0,1,38.9,56.016ZM51.5,47.6a28.265,28.265,0,0,0-3.6-1.743,3.942,3.942,0,0,0-1.874-4.283,45.005,45.005,0,0,0,.808-5.663A4,4,0,0,0,49.858,33h4.284a3.989,3.989,0,0,0,2.56,2.765A24.637,24.637,0,0,1,51.5,47.6ZM58,34a2,2,0,1,1,2-2A2,2,0,0,1,58,34Z"/></g></svg>
