<?xml version="1.0" encoding="iso-8859-1"?>
<!-- Generator: Adobe Illustrator 17.1.0, SVG Export Plug-In . SVG Version: 6.00 Build 0)  -->
<!DOCTYPE svg PUBLIC "-//W3C//DTD SVG 1.1//EN" "http://www.w3.org/Graphics/SVG/1.1/DTD/svg11.dtd">
<svg version="1.1" id="Capa_1" xmlns="http://www.w3.org/2000/svg" xmlns:xlink="http://www.w3.org/1999/xlink" x="0px" y="0px"
	 viewBox="0 0 190.667 190.667" style="enable-background:new 0 0 190.667 190.667;" xml:space="preserve">
<path d="M187.667,177.891c-1.657,0-3-1.343-3-3V15.775c0-1.657,1.343-3,3-3s3,1.343,3,3v159.116
	C190.667,176.549,189.324,177.891,187.667,177.891z M172.944,177.891h-13.461c-1.657,0-3-1.343-3-3V15.775c0-1.657,1.343-3,3-3
	h13.461c1.657,0,3,1.343,3,3v159.116C175.944,176.549,174.601,177.891,172.944,177.891z M162.483,171.891h7.461V18.775h-7.461
	V171.891z M146.863,177.891c-1.657,0-3-1.343-3-3v-13.568c0-1.657,1.343-3,3-3s3,1.343,3,3v13.568
	C149.863,176.549,148.52,177.891,146.863,177.891z M132.833,177.891h-0.496c-4.044,0-7.334-3.29-7.334-7.333v-4.901
	c0-4.044,3.29-7.334,7.334-7.334h0.496c4.043,0,7.333,3.29,7.333,7.334v4.901C140.166,174.601,136.875,177.891,132.833,177.891z
	 M132.336,164.323c-0.735,0-1.334,0.599-1.334,1.334v4.901c0,0.735,0.599,1.333,1.334,1.333h0.496c0.735,0,1.333-0.598,1.333-1.333
	v-4.901c0-0.735-0.598-1.334-1.333-1.334H132.336z M118.305,177.891c-1.657,0-3-1.343-3-3v-13.568c0-1.657,1.343-3,3-3s3,1.343,3,3
	v13.568C121.305,176.549,119.962,177.891,118.305,177.891z M104.275,177.891h-0.496c-4.044,0-7.334-3.29-7.334-7.333v-4.901
	c0-4.044,3.29-7.334,7.334-7.334h0.496c4.043,0,7.333,3.29,7.333,7.334v4.901C111.608,174.601,108.318,177.891,104.275,177.891z
	 M103.779,164.323c-0.735,0-1.334,0.599-1.334,1.334v4.901c0,0.735,0.599,1.333,1.334,1.333h0.496c0.735,0,1.333-0.598,1.333-1.333
	v-4.901c0-0.735-0.598-1.334-1.333-1.334H103.779z M89.748,177.891c-1.657,0-3-1.343-3-3v-13.568c0-1.657,1.343-3,3-3s3,1.343,3,3
	v13.568C92.748,176.549,91.404,177.891,89.748,177.891z M75.469,177.891c-1.657,0-3-1.343-3-3v-13.568c0-1.657,1.343-3,3-3
	s3,1.343,3,3v13.568C78.469,176.549,77.125,177.891,75.469,177.891z M61.19,177.891c-1.657,0-3-1.343-3-3v-13.568
	c0-1.657,1.343-3,3-3s3,1.343,3,3v13.568C64.19,176.549,62.847,177.891,61.19,177.891z M46.911,177.891c-1.657,0-3-1.343-3-3
	v-13.568c0-1.657,1.343-3,3-3s3,1.343,3,3v13.568C49.911,176.549,48.568,177.891,46.911,177.891z M32.88,177.891h-0.496
	c-4.043,0-7.333-3.29-7.333-7.333v-4.901c0-4.044,3.29-7.334,7.333-7.334h0.496c4.044,0,7.333,3.29,7.333,7.334v4.901
	C40.214,174.601,36.924,177.891,32.88,177.891z M32.384,164.323c-0.735,0-1.333,0.599-1.333,1.334v4.901
	c0,0.735,0.598,1.333,1.333,1.333h0.496c0.735,0,1.333-0.598,1.333-1.333v-4.901c0-0.735-0.598-1.334-1.333-1.334H32.384z
	 M18.354,177.891c-1.657,0-3-1.343-3-3v-13.568c0-1.657,1.343-3,3-3s3,1.343,3,3v13.568
	C21.354,176.549,20.01,177.891,18.354,177.891z M3,177.891c-1.657,0-3-1.343-3-3V15.775c0-1.657,1.343-3,3-3s3,1.343,3,3v159.116
	C6,176.549,4.657,177.891,3,177.891z M146.863,155.066c-1.657,0-3-1.343-3-3V15.775c0-1.657,1.343-3,3-3s3,1.343,3,3v136.291
	C149.863,153.723,148.52,155.066,146.863,155.066z M131.509,155.066h-13.461c-1.657,0-3-1.343-3-3V15.775c0-1.657,1.343-3,3-3
	h13.461c1.657,0,3,1.343,3,3v136.291C134.509,153.723,133.167,155.066,131.509,155.066z M121.048,149.066h7.461V18.775h-7.461
	V149.066z M102.274,155.066H80.4c-1.657,0-3-1.343-3-3V15.775c0-1.657,1.343-3,3-3h21.874c1.657,0,3,1.343,3,3v136.291
	C105.274,153.723,103.931,155.066,102.274,155.066z M83.4,149.066h15.874V18.775H83.4V149.066z M67.991,155.066
	c-1.657,0-3-1.343-3-3V15.775c0-1.657,1.343-3,3-3s3,1.343,3,3v136.291C70.991,153.723,69.647,155.066,67.991,155.066z
	 M47.168,155.066c-1.657,0-3-1.343-3-3V15.775c0-1.657,1.343-3,3-3s3,1.343,3,3v136.291
	C50.168,153.723,48.825,155.066,47.168,155.066z M31.814,155.066H18.354c-1.657,0-3-1.343-3-3V15.775c0-1.657,1.343-3,3-3h13.461
	c1.657,0,3,1.343,3,3v136.291C34.814,153.723,33.471,155.066,31.814,155.066z M21.354,149.066h7.461V18.775h-7.461V149.066z"/>
<g>
</g>
<g>
</g>
<g>
</g>
<g>
</g>
<g>
</g>
<g>
</g>
<g>
</g>
<g>
</g>
<g>
</g>
<g>
</g>
<g>
</g>
<g>
</g>
<g>
</g>
<g>
</g>
<g>
</g>
</svg>
