<?xml version="1.0" encoding="utf-8"?>
<!-- Generator: Adobe Illustrator 24.0.1, SVG Export Plug-In . SVG Version: 6.00 Build 0)  -->
<svg version="1.1" id="Camada_1" xmlns="http://www.w3.org/2000/svg" xmlns:xlink="http://www.w3.org/1999/xlink" x="0px" y="0px"
	 viewBox="0 0 66 60" style="enable-background:new 0 0 66 60;" xml:space="preserve">
<title>Artboard 3</title>
<g>
	<path d="M64,2.8H2c-0.6,0-1,0.4-1,1v32c0,0.6,0.4,1,1,1h62c0.6,0,1-0.4,1-1v-32C65,3.2,64.6,2.8,64,2.8z M63,34.8H3v-30h60V34.8z"
		/>
	<path d="M7,28.8c1.7,0,3,1.3,3,3c0,0.6,0.4,1,1,1h44c0.6,0,1-0.4,1-1c0-1.7,1.3-3,3-3c0.6,0,1-0.4,1-1v-16c0-0.6-0.4-1-1-1
		c-1.7,0-3-1.3-3-3c0-0.6-0.4-1-1-1H11c-0.6,0-1,0.4-1,1c0,1.7-1.3,3-3,3c-0.6,0-1,0.4-1,1v16C6,28.3,6.4,28.8,7,28.8z M25,19.8
		c0-6.1,3.6-11,8-11s8,4.9,8,11s-3.6,11-8,11S25,25.8,25,19.8z M54.1,8.8c0.4,2,1.9,3.5,3.9,3.9v14.2c-2,0.4-3.5,1.9-3.9,3.9H38.3
		c3.1-2.8,4.8-6.8,4.7-11c0.1-4.2-1.6-8.2-4.7-11H54.1z M8,12.6c2-0.4,3.5-1.9,3.9-3.9h15.8c-3.1,2.8-4.8,6.8-4.7,11
		c-0.1,4.2,1.6,8.2,4.7,11H11.9c-0.4-2-1.9-3.5-3.9-3.9V12.6z"/>
	<path d="M51,23.8c1.7,0,3-1.3,3-3s-1.3-3-3-3s-3,1.3-3,3S49.3,23.8,51,23.8z M51,19.8c0.6,0,1,0.4,1,1s-0.4,1-1,1s-1-0.4-1-1
		S50.4,19.8,51,19.8z"/>
	<path d="M15,23.8c1.7,0,3-1.3,3-3s-1.3-3-3-3s-3,1.3-3,3S13.3,23.8,15,23.8z M15,19.8c0.6,0,1,0.4,1,1s-0.4,1-1,1s-1-0.4-1-1
		S14.4,19.8,15,19.8z"/>
	<path d="M64,50.8H44v-4c0-0.3-0.1-0.5-0.3-0.7l-4-4c-0.4-0.4-1-0.4-1.4,0c0,0,0,0,0,0l-4,4c-0.2,0.2-0.3,0.4-0.3,0.7v4H2
		c-0.6,0-1,0.4-1,1s0.4,1,1,1h32v4c0,0.6,0.4,1,1,1h8c0.6,0,1-0.4,1-1v-4h20c0.6,0,1-0.4,1-1S64.6,50.8,64,50.8z M42,55.8h-6v-8.6
		l3-3l3,3V55.8z"/>
</g>
</svg>
