<?xml version="1.0" encoding="utf-8"?>
<!-- Generator: Adobe Illustrator 24.0.1, SVG Export Plug-In . SVG Version: 6.00 Build 0)  -->
<svg version="1.1" id="Camada_1" xmlns="http://www.w3.org/2000/svg" xmlns:xlink="http://www.w3.org/1999/xlink" x="0px" y="0px"
	 viewBox="0 0 55 60" style="enable-background:new 0 0 55 60;" xml:space="preserve">
<style type="text/css">
	.st0{fill:#FFFFFF;}
</style>
<title>Bell v8.5</title>
<desc>Created with Sketch.</desc>
<g>
	<g>
		<path class="st0" d="M54,40.5c0,3.6-2.9,6.5-6.5,6.5h-40C3.9,47,1,44.1,1,40.5c0-3.4,2.6-6.2,6-6.5V22.5C7,11.2,16.2,2,27.5,2
			C38.8,2,48,11.2,48,22.5V34C51.4,34.3,54,37.1,54,40.5z M47.5,39C45,39,43,37,43,34.5v-12C43,13.9,36.1,7,27.5,7
			C18.9,7,12,13.9,12,22.5v12C12,37,10,39,7.5,39C6.7,39,6,39.7,6,40.5C6,41.3,6.7,42,7.5,42h40c0.8,0,1.5-0.7,1.5-1.5
			C49,39.7,48.3,39,47.5,39z M18,49.5h5c0,2.5,2,4.5,4.5,4.5s4.5-2,4.5-4.5h5c0,5.2-4.3,9.5-9.5,9.5S18,54.7,18,49.5z"/>
	</g>
</g>
</svg>
