<?xml version="1.0" encoding="utf-8"?>
<!-- Generator: Adobe Illustrator 24.0.1, SVG Export Plug-In . SVG Version: 6.00 Build 0)  -->
<svg version="1.1"
	 id="Camada_1" xmlns:cc="http://creativecommons.org/ns#" xmlns:dc="http://purl.org/dc/elements/1.1/" xmlns:inkscape="http://www.inkscape.org/namespaces/inkscape" xmlns:rdf="http://www.w3.org/1999/02/22-rdf-syntax-ns#" xmlns:sodipodi="http://sodipodi.sourceforge.net/DTD/sodipodi-0.dtd" xmlns:svg="http://www.w3.org/2000/svg"
	 xmlns="http://www.w3.org/2000/svg" xmlns:xlink="http://www.w3.org/1999/xlink" x="0px" y="0px" viewBox="0 0 80 90"
	 style="enable-background:new 0 0 80 90;" xml:space="preserve">
<style type="text/css">
	.st0{fill-rule:evenodd;clip-rule:evenodd;fill:#FFFFFF;}
</style>
<g transform="translate(0,-952.36218)">
	<path class="st0" d="M41,952.9c-3.4,0-6.3,2.8-6.3,6.3c0,0.9,0.2,1.8,0.6,2.6c-12.1,2.5-21.4,13-21.4,25.4v26.6h-1.8
		c-4.4,0-8.1,3.6-8.1,8.1c0,4.5,3.7,8.1,8.1,8.1h15.8c0.5,3.3,2,5.9,4.2,7.8c2.5,2.2,5.8,3.2,9,3.2s6.5-1.1,9-3.3
		c2.1-1.8,3.6-4.5,4.1-7.7H70c4.4,0,8.1-3.6,8.1-8.1c0-4.4-3.7-8.1-8.1-8.1h-1.8v-26.6c0-12.4-9.2-22.9-21.4-25.4
		c0.4-0.8,0.6-1.7,0.6-2.6C47.3,955.7,44.4,952.9,41,952.9z M41,957.3c1,0,1.9,0.8,1.9,1.8c0,1.1-0.8,1.9-1.9,1.9s-1.8-0.8-1.8-1.9
		C39.1,958.1,39.9,957.3,41,957.3z M41,965.6c12.5,0,22.7,9.8,22.7,21.6v26.6H18.3v-26.6C18.3,975.4,28.5,965.6,41,965.6z
		 M12.1,1018.2h57.8c2,0,3.7,1.6,3.7,3.6s-1.7,3.7-3.7,3.7H12.1c-2,0-3.7-1.6-3.7-3.7C8.4,1019.8,10.1,1018.2,12.1,1018.2
		L12.1,1018.2z M32.4,1029.9h17.3c-0.4,1.9-1.3,3.3-2.5,4.3c-1.6,1.4-3.8,2.2-6.1,2.2s-4.5-0.7-6.1-2.1
		C33.7,1033.3,32.8,1031.9,32.4,1029.9z"/>
	<path class="st0" d="M44.2,967.6c-1.2,0-2.2,1-2.2,2.2c0,1,0.7,1.9,1.6,2.1c5.4,1.5,8.6,3.9,10.6,6.7s2.9,6.3,3.2,10.2
		c0.1,1.2,1.1,2.2,2.3,2.1c1.2-0.1,2.2-1.1,2.1-2.3v-0.1c-0.4-4.3-1.4-8.7-4-12.4s-6.8-6.7-13-8.5C44.6,967.6,44.4,967.6,44.2,967.6
		L44.2,967.6z"/>
	<path class="st0" d="M59.8,992.8c-1.2,0-2.2,0.9-2.3,2.2c0,1.1,0,1.3-0.1,2.4c-0.1,1.2,0.9,2.3,2.1,2.3c1.2,0.1,2.3-0.9,2.3-2.1
		v-0.1c0-1.1,0-1.3,0.1-2.4C62.1,993.9,61.1,992.8,59.8,992.8C59.9,992.8,59.9,992.8,59.8,992.8L59.8,992.8z"/>
</g>
</svg>
