<?xml version="1.0" encoding="utf-8"?>
<!-- Generator: Adobe Illustrator 24.0.1, SVG Export Plug-In . SVG Version: 6.00 Build 0)  -->
<svg version="1.1" id="Camada_1" xmlns="http://www.w3.org/2000/svg" xmlns:xlink="http://www.w3.org/1999/xlink" x="0px" y="0px"
	 viewBox="0 0 90 85" style="enable-background:new 0 0 90 85;" xml:space="preserve">
<style type="text/css">
	.st0{fill:#FFFFFF;}
</style>
<path class="st0" d="M4.9,42.1c0,22.1,18,40.1,40.1,40.1s40.1-18,40.1-40.1S67.1,2,45,2S4.9,20,4.9,42.1z M21.1,71.8L21.1,71.8
	c0-13.1,10.6-23.7,23.7-23.7s23.7,10.6,23.7,23.7c0,0.1,0,0.2,0,0.2c-6.5,5.1-14.7,8.2-23.6,8.2S27.7,77,21.1,71.8z M45,4
	c21,0,38.1,17.1,38.1,38.1c0,11.2-4.9,21.3-12.6,28.3C69.9,58.9,61.8,49.5,51,46.8c5.8-2.4,9.8-8.1,9.8-14.8c0-8.8-7.2-16-16-16
	s-16,7.2-16,16c0,6.6,4.1,12.3,9.8,14.8c-10.7,2.6-18.7,12-19.5,23.3c-7.5-7-12.3-16.9-12.3-28C6.9,21.1,24,4,45,4z M44.8,46
	c-7.7,0-14-6.3-14-14s6.3-14,14-14s14,6.3,14,14S52.5,46,44.8,46z"/>
</svg>
