<?xml version="1.0" encoding="utf-8"?>
<!-- Generator: Adobe Illustrator 24.0.1, SVG Export Plug-In . SVG Version: 6.00 Build 0)  -->
<svg version="1.1" id="Camada_1" xmlns="http://www.w3.org/2000/svg" xmlns:xlink="http://www.w3.org/1999/xlink" x="0px" y="0px"
	 viewBox="0 0 28 28" style="enable-background:new 0 0 28 28;" xml:space="preserve">
<title>expand-Arrow2</title>
<path d="M8.2,21.8c-0.3-0.6-1-0.8-1.6-0.5c-0.6,0.3-0.8,1-0.4,1.6c0.1,0.2,0.3,0.4,0.4,0.5c0.5,0.5,1,0.9,1.5,1.3
	C8.3,24.9,8.5,25,8.7,25c0.3,0,0.7-0.2,0.9-0.5c0.3-0.5,0.3-1.2-0.2-1.6C9,22.6,8.6,22.2,8.2,21.8z"/>
<path d="M13.7,24.8c-0.6-0.1-1.1-0.2-1.6-0.4c-0.6,0-1.2,0.5-1.2,1.1c0,0.4,0.2,0.8,0.5,1c0.6,0.2,1.3,0.4,2,0.5h0.2
	c0.6-0.1,1-0.8,0.9-1.4C14.3,25.2,14.1,24.9,13.7,24.8L13.7,24.8z"/>
<path d="M24.2,5.1c-4.8-5-12.7-5-17.5,0C5.4,6.4,4.5,7.8,3.9,9.5L0.3,9.3l4.4,8.7l5-8.3L6.3,9.5C8.8,4.3,15,2.2,20,4.8s7,9,4.5,14.3
	c-1.2,2.4-3.1,4.2-5.5,5.2c-0.3,0.1-0.6,0.2-1,0.3c-0.4,0.1-0.9,0.2-1.3,0.3c-0.6,0.2-0.9,0.9-0.7,1.5c0.1,0.4,0.4,0.7,0.8,0.7h0.1
	c0.6-0.1,1.1-0.2,1.7-0.3c0.4-0.1,0.8-0.2,1.1-0.4c4.8-1.9,8-6.8,8-12.2C27.8,10.8,26.5,7.5,24.2,5.1z"/>
</svg>
