<?xml version="1.0" encoding="utf-8"?>
<!-- Generator: Adobe Illustrator 24.0.1, SVG Export Plug-In . SVG Version: 6.00 Build 0)  -->
<svg version="1.1" id="Camada_1" xmlns="http://www.w3.org/2000/svg" xmlns:xlink="http://www.w3.org/1999/xlink" x="0px" y="0px"
	 viewBox="0 0 66 66" style="enable-background:new 0 0 66 66;" xml:space="preserve">
<title>Artboard 36</title>
<g>
	<path d="M64.5,31.3h-2v-13c0-2.4-1.7-4.4-4-4.9V9.3c0-2.8-2.2-5-5-5H10c-3,0-5.5,2.5-5.5,5.5c0,0,0,0,0,0c0,0.1,0,0.3,0,0.4
		s0,0.1,0,0.1V43c0,0.1,0,0.2,0,0.2c0,0.1,0,0.2,0,0.3v12.8c0,2.8,2.2,5,5,5h48c2.8,0,5-2.2,5-5v-13h2c0.6,0,1-0.4,1-1v-10
		C65.5,31.7,65.1,31.3,64.5,31.3z M10,6.3h43.5c1.7,0,3,1.3,3,3v4H10c-1.9,0-3.5-1.6-3.5-3.5S8.1,6.3,10,6.3z M60.5,56.3
		c0,1.7-1.3,3-3,3h-48c-1.7,0-3-1.3-3-3v-6h16.2c0.6,1.6,2.3,2.4,3.8,1.8c1.6-0.6,2.4-2.3,1.8-3.8s-2.3-2.4-3.8-1.8
		c-0.9,0.3-1.5,1-1.8,1.8H6.5v-4h11c0.2,0,0.4,0,0.5-0.1l4.8-2.9h4.3l2.7,2.7c0.2,0.2,0.4,0.3,0.7,0.3h6.7l2.3,1.6
		c0,0.1,0,0.3,0,0.4c0,1.7,1.3,3,3,3s3-1.3,3-3s-1.3-3-3-3c-0.7,0-1.5,0.3-2,0.8l-2.4-1.6c-0.2-0.1-0.4-0.2-0.6-0.2h-6.6l-2.7-2.7
		c-0.2-0.2-0.4-0.3-0.7-0.3h-5c-0.2,0-0.4,0-0.5,0.1l-4.8,2.9H6.5v-4h12c0.3,0,0.5-0.1,0.7-0.3l2.7-2.7h6.2l2.7,2.7
		c0.2,0.2,0.4,0.3,0.7,0.3h7c0.1,0,0.1,0,0.2,0c0.5,1.6,2.2,2.4,3.8,1.9c1.6-0.5,2.4-2.2,1.9-3.8s-2.2-2.4-3.8-1.9
		c-0.9,0.3-1.6,1-1.9,1.9c-0.1,0-0.1,0-0.2-0.1h-6.6l-2.7-2.7c-0.2-0.2-0.4-0.3-0.7-0.3h-7c-0.3,0-0.5,0.1-0.7,0.3l-2.7,2.7H6.5v-3
		h11c0.3,0,0.5-0.1,0.7-0.3l2.7-2.7h8l1.7,2.5c0.2,0.3,0.5,0.4,0.8,0.5h6c0.3,0,0.5-0.1,0.7-0.3l2.8-2.7c0.2,0,0.4,0,0.5,0
		c1.7,0,3-1.3,3-3s-1.3-3-3-3s-3,1.3-3,3c0,0.7,0.2,1.4,0.7,1.9l-2.1,2.1h-5l-1.7-2.5c-0.2-0.3-0.5-0.4-0.8-0.5h-9
		c-0.3,0-0.5,0.1-0.7,0.3l-2.7,2.7H6.5v-4h3.2c0.6,1.6,2.3,2.4,3.8,1.8c1.6-0.6,2.4-2.3,1.8-3.8c-0.6-1.6-2.3-2.4-3.8-1.8
		c-0.9,0.3-1.5,1-1.8,1.8H6.5V14c1,0.8,2.2,1.3,3.5,1.3h47.5c1.7,0,3,1.3,3,3v13h-10c-1.7,0-3,1.3-3,3v6c0,1.7,1.3,3,3,3h10V56.3z
		 M24.5,49.3c0-0.6,0.4-1,1-1s1,0.4,1,1s-0.4,1-1,1S24.5,49.8,24.5,49.3z M41.5,46.3c0-0.6,0.4-1,1-1s1,0.4,1,1s-0.4,1-1,1
		S41.5,46.8,41.5,46.3z M40.5,37.3c0-0.6,0.4-1,1-1s1,0.4,1,1s-0.4,1-1,1S40.5,37.8,40.5,37.3z M40.5,27.3c0-0.6,0.4-1,1-1
		s1,0.4,1,1s-0.4,1-1,1S40.5,27.8,40.5,27.3z M11.5,26.3c0-0.6,0.4-1,1-1s1,0.4,1,1s-0.4,1-1,1S11.5,26.8,11.5,26.3z M63.5,41.3h-13
		c-0.6,0-1-0.4-1-1v-6c0-0.6,0.4-1,1-1h13V41.3z"/>
	<circle cx="53.5" cy="37.3" r="2"/>
	<circle cx="25.5" cy="18.3" r="1"/>
	<circle cx="21.5" cy="18.3" r="1"/>
	<circle cx="13.5" cy="18.3" r="1"/>
	<circle cx="17.5" cy="18.3" r="1"/>
	<circle cx="37.5" cy="18.3" r="1"/>
	<circle cx="33.5" cy="18.3" r="1"/>
	<circle cx="29.5" cy="18.3" r="1"/>
	<circle cx="9.5" cy="18.3" r="1"/>
	<circle cx="57.5" cy="22.3" r="1"/>
	<circle cx="57.5" cy="18.3" r="1"/>
	<circle cx="57.5" cy="26.3" r="1"/>
	<circle cx="41.5" cy="18.3" r="1"/>
	<circle cx="49.5" cy="18.3" r="1"/>
	<circle cx="53.5" cy="18.3" r="1"/>
	<circle cx="45.5" cy="18.3" r="1"/>
	<circle cx="29.5" cy="56.3" r="1"/>
	<circle cx="57.5" cy="48.3" r="1"/>
	<circle cx="49.5" cy="56.3" r="1"/>
	<circle cx="45.5" cy="56.3" r="1"/>
	<circle cx="53.5" cy="56.3" r="1"/>
	<circle cx="41.5" cy="56.3" r="1"/>
	<circle cx="57.5" cy="52.3" r="1"/>
	<circle cx="57.5" cy="56.3" r="1"/>
	<circle cx="17.5" cy="56.3" r="1"/>
	<circle cx="9.5" cy="56.3" r="1"/>
	<circle cx="21.5" cy="56.3" r="1"/>
	<circle cx="13.5" cy="56.3" r="1"/>
	<circle cx="33.5" cy="56.3" r="1"/>
	<circle cx="37.5" cy="56.3" r="1"/>
	<circle cx="25.5" cy="56.3" r="1"/>
</g>
</svg>
